<?xml version="1.0" encoding="UTF-8" standalone="no"?>
<!-- Created with Inkscape (http://www.inkscape.org/) -->

<svg
   xmlns:dc="http://purl.org/dc/elements/1.1/"
   xmlns:cc="http://creativecommons.org/ns#"
   xmlns:rdf="http://www.w3.org/1999/02/22-rdf-syntax-ns#"
   xmlns:svg="http://www.w3.org/2000/svg"
   xmlns="http://www.w3.org/2000/svg"
   xmlns:sodipodi="http://sodipodi.sourceforge.net/DTD/sodipodi-0.dtd"
   xmlns:inkscape="http://www.inkscape.org/namespaces/inkscape"
   width="512"
   height="512"
   viewBox="0 0 512 512"
   version="1.1"
   id="svg8"
   inkscape:version="0.92.4 (5da689c313, 2019-01-14)"
   sodipodi:docname="U+5ECA.svg">
  <defs
     id="defs2" />
  <sodipodi:namedview
     id="base"
     pagecolor="#ffffff"
     bordercolor="#666666"
     borderopacity="1.0"
     inkscape:pageopacity="0.0"
     inkscape:pageshadow="2"
     inkscape:zoom="1.4"
     inkscape:cx="343.93539"
     inkscape:cy="274.87848"
     inkscape:document-units="px"
     inkscape:current-layer="layer1"
     showgrid="false"
     units="px"
     inkscape:window-width="1920"
     inkscape:window-height="1017"
     inkscape:window-x="-8"
     inkscape:window-y="-8"
     inkscape:window-maximized="1" />
  <metadata
     id="metadata5">
    <rdf:RDF>
      <cc:Work
         rdf:about="">
        <dc:format>image/svg+xml</dc:format>
        <dc:type
           rdf:resource="http://purl.org/dc/dcmitype/StillImage" />
        <dc:title></dc:title>
      </cc:Work>
    </rdf:RDF>
  </metadata>
  <g
     inkscape:label="圖層 1"
     inkscape:groupmode="layer"
     id="layer1"
     transform="translate(0,-161.53331)">
    <path
       style="fill:#000000;stroke:none;stroke-width:1px;stroke-linecap:butt;stroke-linejoin:miter;stroke-opacity:1;fill-opacity:1"
       d="M 222.14286,187.10474 214.28571,192.81902 C 214.28571,192.81902 225,209.96188 230.71429,215.67617 236.42857,221.39045 244.28571,229.96188 244.28571,229.96188 L 246.42857,245.67617 274.28571,242.10474 272.85714,225.67617 279.28571,217.10474 275,206.39045 Z"
       id="path939"
       inkscape:connector-curvature="0" />
    <path
       style="fill:#000000;stroke:none;stroke-width:1px;stroke-linecap:butt;stroke-linejoin:miter;stroke-opacity:1;fill-opacity:1"
       d="M 119.28571,250.67617 C 119.28571,250.67617 116.42857,259.96188 117.85714,263.53331 119.28571,267.10474 132.14286,294.96188 138.57143,292.81902 145,290.67617 422.85714,233.53331 422.85714,233.53331 L 418.57143,219.2476 397.85714,210.67617 389.28571,219.96188 150.71429,267.81902 125.71429,252.10474 Z"
       id="path941"
       inkscape:connector-curvature="0" />
    <path
       style="fill:#000000;stroke:none;stroke-width:1px;stroke-linecap:butt;stroke-linejoin:miter;stroke-opacity:1;fill-opacity:1"
       d="M 139.28571,301.39045 127.85714,312.81902 129.28571,322.10474 144.28571,324.96188 151.42857,336.39045 57.142857,565.67617 5,622.10474 7.8571429,629.96188 66.428571,578.53331 C 66.428571,578.53331 119.28571,477.10474 119.28571,474.2476 119.28571,471.39045 163.57143,344.96188 163.57143,344.96188 L 170,337.10474 149.28571,303.53331 Z"
       id="path943"
       inkscape:connector-curvature="0" />
    <path
       style="fill:#000000;stroke:none;stroke-width:1px;stroke-linecap:butt;stroke-linejoin:miter;stroke-opacity:1;fill-opacity:1"
       d="M 214.28571,280.67617 C 216.42857,286.39045 219.28571,319.2476 219.28571,319.2476 L 234.28571,318.53331 C 234.28571,318.53331 242.85714,294.96188 242.85714,292.10474 242.85714,289.2476 240,284.96188 240,284.96188 Z"
       id="path945"
       inkscape:connector-curvature="0" />
    <path
       style="fill:#000000;stroke:none;stroke-width:1px;stroke-linecap:butt;stroke-linejoin:miter;stroke-opacity:1;fill-opacity:1"
       d="M 163.57143,344.96188 170,337.10474 185.71429,337.81902 219.28571,319.2476 265.71429,315.67617 275.71429,295.67617 304.28571,306.39045 C 304.28571,306.39045 307.14286,317.81902 305,327.81902 302.85714,337.81902 292.85714,340.67617 292.85714,340.67617 L 277.85714,423.53331 C 277.85714,423.53331 267.85714,427.81902 267.14286,421.39045 266.42857,414.96188 268.57143,349.2476 270,345.67617 271.42857,342.10474 287.85714,318.53331 287.85714,318.53331 L 204.28571,354.2476 198.57143,437.10474 185,492.81902 C 185,492.81902 263.57143,473.53331 260.71429,476.39045 257.85714,479.2476 167.14286,535.67617 167.14286,535.67617 167.14286,535.67617 151.42857,534.2476 151.42857,530.67617 151.42857,527.10474 143.57143,522.81902 146.42857,517.10474 149.28571,511.39045 163.57143,505.67617 163.57143,505.67617 L 175,492.81902 180.71429,360.67617 Z"
       id="path947"
       inkscape:connector-curvature="0" />
    <path
       style="fill:#000000;stroke:none;stroke-width:1px;stroke-linecap:butt;stroke-linejoin:miter;stroke-opacity:1;fill-opacity:1"
       d="M 202.85714,385.67617 C 210.71429,383.53331 252.14286,373.53331 252.14286,373.53331 L 236.42857,392.10474 207.14286,407.81902 200,404.96188 Z"
       id="path949"
       inkscape:connector-curvature="0" />
    <path
       style="fill:#000000;stroke:none;stroke-width:1px;stroke-linecap:butt;stroke-linejoin:miter;stroke-opacity:1;fill-opacity:1"
       d="M 198.57143,437.10474 263.57143,419.2476 277.85714,423.53331 239.28571,446.39045 198.57143,457.81902 Z"
       id="path951"
       inkscape:connector-curvature="0" />
    <path
       style="fill:#000000;stroke:none;stroke-width:1px;stroke-linecap:butt;stroke-linejoin:miter;stroke-opacity:1;fill-opacity:1"
       d="M 253.57143,454.2476 C 253.57143,457.10474 261.42857,466.39045 261.42857,473.53331 261.42857,480.67617 262.14286,494.96188 265,494.96188 267.85714,494.96188 280.71429,500.67617 287.14286,500.67617 293.57143,500.67617 294.28571,493.53331 292.85714,490.67617 291.42857,487.81902 270,456.39045 270,456.39045 Z"
       id="path953"
       inkscape:connector-curvature="0" />
    <path
       style="fill:#000000;stroke:none;stroke-width:1px;stroke-linecap:butt;stroke-linejoin:miter;stroke-opacity:1;fill-opacity:1"
       d="M 318.57143,320.67617 317.14286,336.39045 C 317.14286,336.39045 337.85714,357.10474 342.14286,354.2476 346.42857,351.39045 402.85714,323.53331 402.85714,323.53331 L 407.85714,325.67617 410.71429,334.96188 392.14286,379.96188 371.42857,394.2476 398.57143,409.2476 422.85714,434.96188 427.14286,464.2476 398.57143,474.2476 374.28571,472.81902 445,514.2476 457.85714,475.67617 C 457.85714,475.67617 442.85714,439.96188 440,435.67617 437.14286,431.39045 391.42857,399.2476 393.57143,396.39045 395.71429,393.53331 455,330.67617 455,330.67617 L 459.28571,321.39045 C 459.28571,321.39045 452.14286,302.81902 449.28571,300.67617 446.42857,298.53331 430,287.10474 426.42857,287.10474 422.85714,287.10474 407.85714,287.10474 407.85714,287.10474 L 398.57143,312.10474 348.57143,325.67617 Z"
       id="path955"
       inkscape:connector-curvature="0" />
    <path
       style="fill:#000000;stroke:none;stroke-width:1px;stroke-linecap:butt;stroke-linejoin:miter;stroke-opacity:1;fill-opacity:1"
       d="M 313.57143,362.10474 308.57143,368.53331 C 308.57143,368.53331 319.28571,362.81902 322.14286,371.39045 325,379.96188 330.71429,387.81902 330.71429,387.81902 L 335,614.2476 C 335,614.2476 351.42857,644.2476 352.14286,641.39045 352.85714,638.53331 360,621.39045 360,621.39045 L 347.85714,404.96188 C 347.85714,404.96188 352.14286,387.81902 353.57143,384.96188 355,382.10474 347.85714,367.81902 347.85714,367.81902 L 318.57143,359.2476 Z"
       id="path957"
       inkscape:connector-curvature="0" />
  </g>
</svg>
