<?xml version="1.0" encoding="UTF-8" standalone="no"?>
<!-- Created with Inkscape (http://www.inkscape.org/) -->

<svg
   xmlns:dc="http://purl.org/dc/elements/1.1/"
   xmlns:cc="http://creativecommons.org/ns#"
   xmlns:rdf="http://www.w3.org/1999/02/22-rdf-syntax-ns#"
   xmlns:svg="http://www.w3.org/2000/svg"
   xmlns="http://www.w3.org/2000/svg"
   xmlns:sodipodi="http://sodipodi.sourceforge.net/DTD/sodipodi-0.dtd"
   xmlns:inkscape="http://www.inkscape.org/namespaces/inkscape"
   width="512"
   height="512"
   viewBox="0 0 512.00001 512.00001"
   version="1.1"
   id="svg8"
   inkscape:version="0.92.4 (5da689c313, 2019-01-14)"
   sodipodi:docname="U+5EDF.svg">
  <defs
     id="defs2" />
  <sodipodi:namedview
     id="base"
     pagecolor="#ffffff"
     bordercolor="#666666"
     borderopacity="1.0"
     inkscape:pageopacity="0.0"
     inkscape:pageshadow="2"
     inkscape:zoom="1.4"
     inkscape:cx="320.39199"
     inkscape:cy="304.7581"
     inkscape:document-units="px"
     inkscape:current-layer="layer1"
     showgrid="false"
     units="px"
     inkscape:window-width="1920"
     inkscape:window-height="1017"
     inkscape:window-x="-8"
     inkscape:window-y="-8"
     inkscape:window-maximized="1" />
  <metadata
     id="metadata5">
    <rdf:RDF>
      <cc:Work
         rdf:about="">
        <dc:format>image/svg+xml</dc:format>
        <dc:type
           rdf:resource="http://purl.org/dc/dcmitype/StillImage" />
        <dc:title></dc:title>
      </cc:Work>
    </rdf:RDF>
  </metadata>
  <g
     inkscape:label="圖層 1"
     inkscape:groupmode="layer"
     id="layer1"
     transform="translate(0,-1208.1182)">
    <path
       style="fill:#000000;stroke:none;stroke-width:1px;stroke-linecap:butt;stroke-linejoin:miter;stroke-opacity:1;fill-opacity:1"
       d="M 254.28571,1260.8325 C 278.57143,1277.9753 280,1278.6896 280,1278.6896 l 12.85714,25 21.42857,-2.1428 2.85715,-16.4286 -13.57143,-19.2857 -22.14286,-12.8572 z"
       id="path3724"
       inkscape:connector-curvature="0" />
    <path
       style="fill:#000000;stroke:none;stroke-width:1px;stroke-linecap:butt;stroke-linejoin:miter;stroke-opacity:1;fill-opacity:1"
       d="m 442.85714,1280.1182 c -3.57143,3.5714 -31.42857,12.1429 -31.42857,12.1429 l -97.14286,9.2857 -44.28571,5.7143 -94.28571,22.8571 -25,-4.2857 34.28571,26.4286 86.42857,-32.8572 162.85714,-14.2857 19.28572,4.2857 20.71428,-1.4286 2.85715,-8.5714 z"
       id="path3726"
       inkscape:connector-curvature="0" />
    <path
       style="fill:#000000;stroke:none;stroke-width:1px;stroke-linecap:butt;stroke-linejoin:miter;stroke-opacity:1;fill-opacity:1"
       d="m 185,1352.2611 7.85714,21.4285 17.85715,31.4286 -57.14286,182.1429 -57.857144,91.4285 c 0,0 -31.428572,37.8572 -51.428572,39.2857 -20,1.4286 -15.714285,1.4286 -14.285714,-1.4285 1.428571,-2.8572 38.571429,-25.7143 40,-29.2857 1.428572,-3.5715 51.42857,-75 51.42857,-75 L 150,1555.1182 l 36.42857,-109.2857 5,-47.8572 -12.85714,-32.8571 z"
       id="path3728"
       inkscape:connector-curvature="0" />
    <path
       style="fill:#000000;stroke:none;stroke-width:1px;stroke-linecap:butt;stroke-linejoin:miter;stroke-opacity:1;fill-opacity:1"
       d="m 326.42857,1372.2611 -4.28571,12.1428 -87.14286,32.8572 -22.85714,-22.8572 77.14285,-19.2857 12.85715,-10.7143 z"
       id="path3730"
       inkscape:connector-curvature="0" />
    <path
       style="fill:#000000;stroke:none;stroke-width:1px;stroke-linecap:butt;stroke-linejoin:miter;stroke-opacity:1;fill-opacity:1"
       d="m 249.28571,1345.8325 2.14286,27.1428 -0.71428,44.2858 -10,17.8571 c 0,0 12.14285,4.2857 14.28571,0 2.14286,-4.2857 29.28571,-80 29.28571,-80 z"
       id="path3732"
       inkscape:connector-curvature="0" />
    <path
       style="fill:#000000;stroke:none;stroke-width:1px;stroke-linecap:butt;stroke-linejoin:miter;stroke-opacity:1;fill-opacity:1"
       d="m 309.28571,1415.1182 -69.74014,18.6868 14.02586,11.3132 56.42857,-17.1429 5,5 -15,70 14.28571,15.7143 7.85715,-64.2857 21.42857,-14.2857 1.42857,-10.7143 -12.14286,-2.8571 -10.71428,-13.5715 z"
       id="path3734"
       inkscape:connector-curvature="0" />
    <path
       style="fill:#000000;stroke:none;stroke-width:1px;stroke-linecap:butt;stroke-linejoin:miter;stroke-opacity:1;fill-opacity:1"
       d="m 217.85714,1452.9753 8.57143,45 1.42857,22.8572 9.28572,-7.1429 v -25 l 5,-23.5714 c 0,0 -16.42857,-12.1429 -20.71429,-12.1429 -4.28571,0 -3.57143,0 -3.57143,0 z"
       id="path3736"
       inkscape:connector-curvature="0" />
    <path
       style="fill:#000000;stroke:none;stroke-width:1px;stroke-linecap:butt;stroke-linejoin:miter;stroke-opacity:1;fill-opacity:1"
       d="m 202.85714,1527.2611 15.71429,6.4285 75.38094,-20.1982 L 300,1502.9753 v 0 l -15,-5.7142 z"
       id="path3738"
       inkscape:connector-curvature="0" />
    <path
       style="fill:#000000;stroke:none;stroke-width:1px;stroke-linecap:butt;stroke-linejoin:miter;stroke-opacity:1;fill-opacity:1"
       d="m 268.57143,1465.1182 -19.10371,11.0295 6.89423,6.8943 20.29836,-5.439 14.62652,-8.4446 6.3679,-3.6765 -5.08064,-5.0807 c 0,0 -21.43261,0.2655 -24.00266,4.717 z"
       id="path3740"
       inkscape:connector-curvature="0" />
    <path
       style="fill:#000000;stroke:none;stroke-width:1px;stroke-linecap:butt;stroke-linejoin:miter;stroke-opacity:1;fill-opacity:1"
       d="m 167.14286,1580.8325 18.11515,10.4588 h 11.88485 l 32.26459,-18.628 20.92082,-5.6057 50.61423,-13.5621 h 35.48607 l 5.2601,-5.2601 -16.33153,-16.3315 -31.22218,8.366 -117.20076,31.4038 -7.68934,7.6894 z"
       id="path3742"
       inkscape:connector-curvature="0" />
    <path
       style="fill:#000000;stroke:none;stroke-width:1px;stroke-linecap:butt;stroke-linejoin:miter;stroke-opacity:1;fill-opacity:1"
       d="m 252.14286,1527.9753 5.75275,21.4696 7.42994,27.7289 v 55.8015 l 5.50452,20.5432 8.80732,5.0849 4.39697,-16.4097 -8.43268,-31.4711 v -42.7473 -29.2857 l -13.15798,-13.158 z"
       id="path3744"
       inkscape:connector-curvature="0" />
    <path
       style="fill:#000000;stroke:none;stroke-width:1px;stroke-linecap:butt;stroke-linejoin:miter;stroke-opacity:1;fill-opacity:1"
       d="m 372.14286,1394.4039 1.42857,64.2857 -6.42857,74.2857 -13.57143,50.7143 -20.71429,39.2857 5.71429,2.8572 29.28571,-45.7143 9.28572,-48.5714 10.71428,-85 -4.28571,-44.2857 z"
       id="path3746"
       inkscape:connector-curvature="0" />
    <path
       style="fill:#000000;stroke:none;stroke-width:1px;stroke-linecap:butt;stroke-linejoin:miter;stroke-opacity:1;fill-opacity:1"
       d="m 403.57143,1372.9753 c 0,0 -2.85714,2.1429 -2.85714,5 0,2.8572 2.14285,10.7143 2.14285,10.7143 l 22.85715,-2.8571 c 0,0 2.14285,-5 7.14285,-6.4286 5,-1.4286 5,-5 5,-5 l 20,3.5714 3.57143,17.8572 1.42857,197.8571 -2.85714,15 -20.71429,-4.2857 -8.57142,-0.7143 3.57142,10 40,42.8572 15,-15.7143 -1.42857,-12.1429 -11.42857,-29.2857 -4.28571,-190.7143 12.14285,-23.5714 13.57143,2.1429 -7.14285,-20 -36.42858,-14.2858 -31.42857,2.1429 -8.57143,15.7143 z"
       id="path3748"
       inkscape:connector-curvature="0" />
    <path
       style="fill:#000000;stroke:none;stroke-width:1px;stroke-linecap:butt;stroke-linejoin:miter;stroke-opacity:1;fill-opacity:1"
       d="m 423.57143,1444.4039 c -3.60646,2.0822 -31.0261,8.3134 -31.0261,8.3134 l -2.86573,10.6951 h 17.46326 c 0,0 3.70723,5.658 7.86867,4.543 4.16145,-1.1151 15.22944,-4.0807 15.22944,-4.0807 l 3.35292,-12.5133 z"
       id="path3750"
       inkscape:connector-curvature="0" />
    <path
       style="fill:#000000;stroke:none;stroke-width:1px;stroke-linecap:butt;stroke-linejoin:miter;stroke-opacity:1;fill-opacity:1"
       d="m 383.57143,1517.2611 c 0,0 4.8244,6.1619 7.74862,4.4736 2.92423,-1.6883 34.28011,-9.1853 34.28011,-9.1853 l 9.91289,9.9129 -5.15591,5.1559 -36.91082,9.8902 -13.6859,3.6672 -5.05019,-8.7472 z"
       id="path3752"
       inkscape:connector-curvature="0" />
  </g>
</svg>
