<?xml version="1.0" encoding="UTF-8" standalone="no"?>
<!-- Created with Inkscape (http://www.inkscape.org/) -->

<svg
   xmlns:dc="http://purl.org/dc/elements/1.1/"
   xmlns:cc="http://creativecommons.org/ns#"
   xmlns:rdf="http://www.w3.org/1999/02/22-rdf-syntax-ns#"
   xmlns:svg="http://www.w3.org/2000/svg"
   xmlns="http://www.w3.org/2000/svg"
   xmlns:sodipodi="http://sodipodi.sourceforge.net/DTD/sodipodi-0.dtd"
   xmlns:inkscape="http://www.inkscape.org/namespaces/inkscape"
   width="512"
   height="512"
   viewBox="0 0 512.00001 512.00001"
   version="1.1"
   id="svg8"
   inkscape:version="0.92.4 (5da689c313, 2019-01-14)"
   sodipodi:docname="U+5E36.svg">
  <defs
     id="defs2" />
  <sodipodi:namedview
     id="base"
     pagecolor="#ffffff"
     bordercolor="#666666"
     borderopacity="1.0"
     inkscape:pageopacity="0.0"
     inkscape:pageshadow="2"
     inkscape:zoom="1.4"
     inkscape:cx="197.33028"
     inkscape:cy="268.20373"
     inkscape:document-units="px"
     inkscape:current-layer="layer1"
     showgrid="false"
     units="px"
     inkscape:window-width="1920"
     inkscape:window-height="1017"
     inkscape:window-x="-8"
     inkscape:window-y="-8"
     inkscape:window-maximized="1" />
  <metadata
     id="metadata5">
    <rdf:RDF>
      <cc:Work
         rdf:about="">
        <dc:format>image/svg+xml</dc:format>
        <dc:type
           rdf:resource="http://purl.org/dc/dcmitype/StillImage" />
        <dc:title></dc:title>
      </cc:Work>
    </rdf:RDF>
  </metadata>
  <g
     inkscape:label="圖層 1"
     inkscape:groupmode="layer"
     id="layer1"
     transform="translate(0,-1208.1182)">
    <path
       style="fill:#000000;stroke:none;stroke-width:1px;stroke-linecap:butt;stroke-linejoin:miter;stroke-opacity:1;fill-opacity:1"
       d="m 46.428571,1295.1182 c 0,3.5714 -4.285714,-5.7143 2.857143,11.4286 7.142857,17.1428 12.857143,25 12.857143,25 l 10.714286,2.8571 c 0,0 15.714286,0.7143 21.428571,0.7143 5.714286,0 81.428576,-30.7143 87.857146,-30.7143 6.42857,0 11.42857,-11.4286 11.42857,-11.4286 0,0 4.28571,-20 -8.57143,-11.4285 -12.85714,8.5714 -93.571428,28.5714 -99.285714,28.5714 -5.714286,0 -23.571429,-12.1429 -23.571429,-12.1429 l -13.571428,-5.7142 z"
       id="path4595"
       inkscape:connector-curvature="0" />
    <path
       style="fill:#000000;stroke:none;stroke-width:1px;stroke-linecap:butt;stroke-linejoin:miter;stroke-opacity:1;fill-opacity:1"
       d="m 87.142857,1254.4039 c 0,0 15.000003,12.8572 15.714283,17.1429 0.71429,4.2857 8.57143,5 8.57143,7.8571 0,2.8572 -6.42857,62.1429 -6.42857,62.1429 l -0.71429,21.4285 8.57143,5.7143 15.71429,-73.5714 -8.57143,-27.1429 -17.85714,-23.5714 -5.714288,4.2857 z"
       id="path4597"
       inkscape:connector-curvature="0" />
    <path
       style="fill:#000000;stroke:none;stroke-width:1px;stroke-linecap:butt;stroke-linejoin:miter;stroke-opacity:1;fill-opacity:1"
       d="m 163.57143,1225.8325 17.14286,-7.1429 c 0,0 13.57142,10.7143 10.71428,13.5715 -2.85714,2.8571 2.14286,23.5714 2.14286,23.5714 l -25,92.1428 -12.85714,2.8572 14.28571,-87.1429 -2.85714,-25.7143 -9.28572,-8.5714 z"
       id="path4599"
       inkscape:connector-curvature="0" />
    <path
       style="fill:#000000;stroke:none;stroke-width:1px;stroke-linecap:butt;stroke-linejoin:miter;stroke-opacity:1;fill-opacity:1"
       d="m 155.71429,1350.8325 c -16.42858,1.4286 -24.28572,2.1428 -24.28572,2.1428 l 4.28572,10.7143 21.42857,7.1429 25,-0.7143 -0.71429,-14.2857 -12.85714,-7.8572 z"
       id="path4601"
       inkscape:connector-curvature="0" />
    <path
       style="fill:#000000;stroke:none;stroke-width:1px;stroke-linecap:butt;stroke-linejoin:miter;stroke-opacity:1;fill-opacity:1"
       d="m 225.71429,1295.8325 -3.57143,10 20,11.4286 20,-12.1429 c 0,0 60.71428,-15 63.57143,-15 2.85714,0 29.28571,-5.7143 29.28571,-5.7143 l 34.28571,1.4286 2.14286,-12.1429 -34.28571,-4.2857 -98.57143,22.8572 -26.42857,-0.7143 z"
       id="path4603"
       inkscape:connector-curvature="0" />
    <path
       style="fill:#000000;stroke:none;stroke-width:1px;stroke-linecap:butt;stroke-linejoin:miter;stroke-opacity:1;fill-opacity:1"
       d="m 231.42857,1237.2611 3.57143,14.2857 15,5 11.42857,8.5714 12.14286,59.2857 h 7.14286 l 2.14285,-21.4286 -5,-25.7142 -9.28571,-27.1429 -22.14286,-14.2857 z"
       id="path4605"
       inkscape:connector-curvature="0" />
    <path
       style="fill:#000000;stroke:none;stroke-width:1px;stroke-linecap:butt;stroke-linejoin:miter;stroke-opacity:1;fill-opacity:1"
       d="m 329.28571,1214.4039 -2.85714,12.8572 17.14286,12.8571 -17.85714,54.2857 c 0,0 5,2.1429 5,5 0,2.8572 2.14285,12.8572 2.14285,12.8572 0,0 10.23237,-14.7317 10.23237,-17.723 0,-2.9913 17.62478,-53.7056 17.62478,-53.7056 L 359.28571,1230.1182 355,1222.2611 Z"
       id="path4607"
       inkscape:connector-curvature="0" />
    <path
       style="fill:#000000;stroke:none;stroke-width:1px;stroke-linecap:butt;stroke-linejoin:miter;stroke-opacity:1;fill-opacity:1"
       d="m 273.57143,1324.4039 c 0,0 -8.57143,5.7143 -7.85714,13.5714 0.71428,7.8572 6.42857,-0.7142 10.71428,6.4286 4.28572,7.1429 5,10 5,10 l 50.71429,-3.5714 -15.71429,-14.2857 z"
       id="path4609"
       inkscape:connector-curvature="0" />
    <path
       style="fill:#000000;stroke:none;stroke-width:1px;stroke-linecap:butt;stroke-linejoin:miter;stroke-opacity:1;fill-opacity:1"
       d="M 58.571429,1381.5468 C 57.142857,1385.1182 55,1398.6896 55,1398.6896 l 21.428572,15.7143 2.857142,10.7143 L 55,1487.9753 l -5,-4.2857 -6.428571,20.7143 10,18.5714 10.714285,0.7143 -0.714285,-11.4285 10.714285,-31.4286 17.857143,-52.8572 -2.142857,-15 -22.142857,-29.2857 z"
       id="path4611"
       inkscape:connector-curvature="0" />
    <path
       style="fill:#000000;stroke:none;stroke-width:1px;stroke-linecap:butt;stroke-linejoin:miter;stroke-opacity:1;fill-opacity:1"
       d="m 110.71429,1406.5468 -5,15.7143 L 345,1396.5468 l 65,-7.1429 5,9.2857 -7.85714,10.7143 -8.57143,5 -9.28572,5 c 0,0 4.28572,5 7.14286,5 2.85714,0 21.42857,-5.7143 21.42857,-5.7143 l 19.28572,5 16.42857,-5.7143 4.28571,-6.4285 c 0,0 -9.28571,-2.1429 -11.42857,-7.1429 -2.14286,-5 -12.14286,-10 -12.14286,-10 l -12.14285,-11.4286 -10.71429,-3.5714 z"
       id="path4613"
       inkscape:connector-curvature="0" />
    <path
       style="fill:#000000;stroke:none;stroke-width:1px;stroke-linecap:butt;stroke-linejoin:miter;stroke-opacity:1;fill-opacity:1"
       d="M 217.85714,1366.5468 215,1360.8325 h 15.71429 l 11.42857,1.4286 17.14285,29.2857 -11.42857,37.8571 0.71429,137.8572 c 0,0 -7.85714,148.5714 -10.71429,149.2857 -2.85714,0.7143 -14.28571,1.4285 -14.28571,1.4285 l -4.28572,-27.1428 5,-5.7143 L 235,1490.8325 l -2.14286,-60 7.85715,-19.2857 c 0,0 -10,-28.5715 -10,-31.4286 0,-2.8571 -12.85715,-13.5714 -12.85715,-13.5714 z"
       id="path4615"
       inkscape:connector-curvature="0" />
    <path
       style="fill:#000000;stroke:none;stroke-width:1px;stroke-linecap:butt;stroke-linejoin:miter;stroke-opacity:1;fill-opacity:1"
       d="m 147.14286,1461.5468 5.71428,16.4285 12.85715,-2.8571 c 0,0 7.85714,7.1429 6.42857,10 -1.42857,2.8571 -15,48.5714 -15,48.5714 l -7.85715,15.7143 c 0,0 2.85715,12.1429 10,15 7.14286,2.8572 2.85715,0.7143 5.71429,-2.1428 2.85714,-2.8572 13.57143,-65 13.57143,-65 l 3.57143,-24.2858 -17.85715,-15 z"
       id="path4617"
       inkscape:connector-curvature="0" />
    <path
       style="fill:#000000;stroke:none;stroke-width:1px;stroke-linecap:butt;stroke-linejoin:miter;stroke-opacity:1;fill-opacity:1"
       d="m 197.14286,1457.9753 -0.71429,12.1429 17.14286,8.5714 65.71428,-27.1428 19.28572,1.4285 16.42857,15 -8.57143,52.8572 -7.85714,3.5714 -24.28572,-4.2857 19.28572,20.7143 14.28571,9.2857 11.42857,22.1429 c 0,0 7.14286,2.1428 11.42858,2.1428 C 335,1574.4039 330,1552.2611 330,1552.2611 L 327.14286,1515.8325 335,1469.4039 c 0,0 -9.28571,-17.8571 -10.71429,-20.7143 -1.42857,-2.8571 -27.85714,-10 -27.85714,-10 l -24.28571,0.7143 -52.85715,8.5714 z"
       id="path4619"
       inkscape:connector-curvature="0" />
  </g>
</svg>
