<?xml version="1.0" encoding="UTF-8" standalone="no"?>
<!-- Created with Inkscape (http://www.inkscape.org/) -->

<svg
   xmlns:dc="http://purl.org/dc/elements/1.1/"
   xmlns:cc="http://creativecommons.org/ns#"
   xmlns:rdf="http://www.w3.org/1999/02/22-rdf-syntax-ns#"
   xmlns:svg="http://www.w3.org/2000/svg"
   xmlns="http://www.w3.org/2000/svg"
   xmlns:sodipodi="http://sodipodi.sourceforge.net/DTD/sodipodi-0.dtd"
   xmlns:inkscape="http://www.inkscape.org/namespaces/inkscape"
   width="512"
   height="512"
   viewBox="0 0 512.00001 512.00001"
   version="1.1"
   id="svg8"
   inkscape:version="0.92.4 (5da689c313, 2019-01-14)"
   sodipodi:docname="U+5F98.svg">
  <defs
     id="defs2" />
  <sodipodi:namedview
     id="base"
     pagecolor="#ffffff"
     bordercolor="#666666"
     borderopacity="1.0"
     inkscape:pageopacity="0.0"
     inkscape:pageshadow="2"
     inkscape:zoom="1.4"
     inkscape:cx="197.33028"
     inkscape:cy="261.75427"
     inkscape:document-units="px"
     inkscape:current-layer="layer1"
     showgrid="false"
     units="px"
     inkscape:window-width="1920"
     inkscape:window-height="1017"
     inkscape:window-x="-8"
     inkscape:window-y="-8"
     inkscape:window-maximized="1" />
  <metadata
     id="metadata5">
    <rdf:RDF>
      <cc:Work
         rdf:about="">
        <dc:format>image/svg+xml</dc:format>
        <dc:type
           rdf:resource="http://purl.org/dc/dcmitype/StillImage" />
        <dc:title></dc:title>
      </cc:Work>
    </rdf:RDF>
  </metadata>
  <g
     inkscape:label="圖層 1"
     inkscape:groupmode="layer"
     id="layer1"
     transform="translate(0,-1208.1182)">
    <path
       style="fill:#000000;stroke:none;stroke-width:1px;stroke-linecap:butt;stroke-linejoin:miter;stroke-opacity:1;fill-opacity:1"
       d="m 138.57143,1317.9753 c 4.28571,7.1429 12.85714,23.5715 12.85714,27.1429 0,3.5714 -39.28571,62.8571 -39.28571,62.8571 L 62.142857,1486.5468 30,1504.4039 l 2.857143,10 c 0,0 19.285714,-7.1428 23.571428,-10.7143 4.285715,-3.5714 35.714286,-40 35.714286,-40 l 37.142853,-54.2857 34.28572,-46.4286 v -21.4285 l -6.42857,-17.1429 z"
       id="path4692"
       inkscape:connector-curvature="0" />
    <path
       style="fill:#000000;stroke:none;stroke-width:1px;stroke-linecap:butt;stroke-linejoin:miter;stroke-opacity:1;fill-opacity:1"
       d="m 116.42857,1445.1182 -6.42857,5 15.71429,22.1429 4.28571,55.7142 -12.14286,62.8572 -2.85714,9.2857 15,21.4286 9.28571,-13.5715 11.42858,-91.4285 -2.85715,-40.7143 z"
       id="path4694"
       inkscape:connector-curvature="0" />
    <path
       style="fill:#000000;stroke:none;stroke-width:1px;stroke-linecap:butt;stroke-linejoin:miter;stroke-opacity:1;fill-opacity:1"
       d="m 200,1372.9753 20.71429,16.4286 28.57142,10.7143 c 0,0 12.14286,10.7143 10.71429,13.5714 -1.42857,2.8572 -7.85714,8.5715 -7.85714,8.5715 l -10.71429,-7.1429 -30,7.1429 c 0,0 -4.28571,2.8571 -4.28571,-0.7143 0,-3.5715 7.14285,-10.7143 7.14285,-10.7143 l -13.57142,-17.8572 -3.57143,-15 z"
       id="path4696"
       inkscape:connector-curvature="0" />
    <path
       style="fill:#000000;stroke:none;stroke-width:1px;stroke-linecap:butt;stroke-linejoin:miter;stroke-opacity:1;fill-opacity:1"
       d="m 176.42857,1455.8325 c 5,-0.7143 16.42857,-5 16.42857,-5 l 16.42857,0.7143 L 235,1442.9753 c 0,0 10.71429,2.1429 10.71429,5.7143 0,3.5715 -3.57143,27.1429 -3.57143,27.1429 l -34.28572,13.5714 -38.57143,-25 z"
       id="path4698"
       inkscape:connector-curvature="0" />
    <path
       style="fill:#000000;stroke:none;stroke-width:1px;stroke-linecap:butt;stroke-linejoin:miter;stroke-opacity:1;fill-opacity:1"
       d="m 179.28571,1540.1182 h 10 l 51.42858,-30.7143 c 0,0 9.28571,-3.5714 9.28571,-0.7143 0,2.8572 -0.71429,16.4286 -0.71429,16.4286 l -27.85714,42.1429 -15,7.8571 -32.85714,-20.7143 -0.71429,-13.5714 z"
       id="path4700"
       inkscape:connector-curvature="0" />
    <path
       style="fill:#000000;stroke:none;stroke-width:1px;stroke-linecap:butt;stroke-linejoin:miter;stroke-opacity:1;fill-opacity:1"
       d="m 225,1342.2611 5,14.2857 15.71429,11.4285 20.71428,5.7143 7.85714,5.7143 -11.42857,170.7143 -5.71428,14.2857 17.85714,25.7143 8.57143,-7.1429 -2.14286,-185.7142 1.42857,-27.8572 -32.14285,-23.5714 -16.42858,-8.5714 z"
       id="path4702"
       inkscape:connector-curvature="0" />
    <path
       style="fill:#000000;stroke:none;stroke-width:1px;stroke-linecap:butt;stroke-linejoin:miter;stroke-opacity:1;fill-opacity:1"
       d="m 315.71429,1302.2611 c -1.42858,7.1428 2.85714,20 2.85714,20 l 25.71428,18.5714 8.57143,34.2857 -7.14285,212.8571 -6.42858,11.4286 6.42858,25.7143 c 0,0 11.42857,22.1429 14.28571,17.8571 2.85714,-4.2857 3.57143,-11.4285 2.85714,-15 -0.71428,-3.5714 -5.71428,-28.5714 -4.28571,-36.4285 1.42857,-7.8572 6.42857,-200 6.42857,-200 l 5,-34.2857 7.85714,-9.2858 -6.42857,-14.2857 -32.14286,-27.1428 -5,1.4285 z"
       id="path4704"
       inkscape:connector-curvature="0" />
    <path
       style="fill:#000000;stroke:none;stroke-width:1px;stroke-linecap:butt;stroke-linejoin:miter;stroke-opacity:1;fill-opacity:1"
       d="m 424.28571,1339.4039 5,16.4286 -13.57142,17.1428 -17.85715,8.5715 19.28572,2.1428 c 0,0 18.57143,-5 24.28571,-5 5.71429,0 21.42857,-10 18.57143,-11.4285 -2.85714,-1.4286 -11.42857,-17.1429 -11.42857,-17.1429 L 435,1336.5468 h -9.28571 z"
       id="path4706"
       inkscape:connector-curvature="0" />
    <path
       style="fill:#000000;stroke:none;stroke-width:1px;stroke-linecap:butt;stroke-linejoin:miter;stroke-opacity:1;fill-opacity:1"
       d="m 382.14286,1435.1182 16.42857,-7.8571 18.57143,-4.2858 c 0,0 12.85714,-0.7142 15,5 2.14285,5.7143 1.42857,15.7143 1.42857,15.7143 l -17.14286,6.4286 z"
       id="path4708"
       inkscape:connector-curvature="0" />
    <path
       style="fill:#000000;stroke:none;stroke-width:1px;stroke-linecap:butt;stroke-linejoin:miter;stroke-opacity:1;fill-opacity:1"
       d="m 382.14286,1505.1182 65,35.7143 16.42857,4.2857 c 0,0 7.85714,-3.5714 4.28571,-9.2857 -3.57143,-5.7143 8.57143,0.7143 -4.28571,-7.1429 -12.85714,-7.8571 -27.85714,-20.7143 -27.85714,-20.7143 l -26.42858,-3.5714 h -21.42857 z"
       id="path4710"
       inkscape:connector-curvature="0" />
  </g>
</svg>
