<?xml version="1.0" encoding="UTF-8" standalone="no"?>
<!-- Created with Inkscape (http://www.inkscape.org/) -->

<svg
   xmlns:dc="http://purl.org/dc/elements/1.1/"
   xmlns:cc="http://creativecommons.org/ns#"
   xmlns:rdf="http://www.w3.org/1999/02/22-rdf-syntax-ns#"
   xmlns:svg="http://www.w3.org/2000/svg"
   xmlns="http://www.w3.org/2000/svg"
   xmlns:sodipodi="http://sodipodi.sourceforge.net/DTD/sodipodi-0.dtd"
   xmlns:inkscape="http://www.inkscape.org/namespaces/inkscape"
   width="512"
   height="512"
   viewBox="0 0 512.00001 512.00001"
   version="1.1"
   id="svg8"
   inkscape:version="0.92.4 (5da689c313, 2019-01-14)"
   sodipodi:docname="U+77BB.svg">
  <defs
     id="defs2" />
  <sodipodi:namedview
     id="base"
     pagecolor="#ffffff"
     bordercolor="#666666"
     borderopacity="1.0"
     inkscape:pageopacity="0.0"
     inkscape:pageshadow="2"
     inkscape:zoom="1.4"
     inkscape:cx="197.33028"
     inkscape:cy="261.75427"
     inkscape:document-units="px"
     inkscape:current-layer="layer1"
     showgrid="false"
     units="px"
     inkscape:window-width="1920"
     inkscape:window-height="1017"
     inkscape:window-x="-8"
     inkscape:window-y="-8"
     inkscape:window-maximized="1" />
  <metadata
     id="metadata5">
    <rdf:RDF>
      <cc:Work
         rdf:about="">
        <dc:format>image/svg+xml</dc:format>
        <dc:type
           rdf:resource="http://purl.org/dc/dcmitype/StillImage" />
        <dc:title></dc:title>
      </cc:Work>
    </rdf:RDF>
  </metadata>
  <g
     inkscape:label="圖層 1"
     inkscape:groupmode="layer"
     id="layer1"
     transform="translate(0,-1208.1182)">
    <path
       style="fill:#000000;stroke:none;stroke-width:1px;stroke-linecap:butt;stroke-linejoin:miter;stroke-opacity:1;fill-opacity:1"
       d="m 128.57143,1292.2611 12.14286,50 c 0,0 -112.857147,160 -122.857147,165 -10.0000001,5 -19.2857144,0 -19.2857144,9.2857 0,9.2857 -4.2857143,20 4.2857143,16.4285 C 11.428571,1529.4039 33.571429,1515.8325 35,1512.2611 c 1.428571,-3.5715 73.57143,-87.8572 73.57143,-87.8572 l 42.85714,-55 c 0,0 22.14286,-10.7143 20.71429,-13.5714 -1.42857,-2.8572 -3.57143,-19.2857 -7.14286,-20.7143 -3.57143,-1.4286 -27.14286,-43.5714 -27.14286,-43.5714 0,0 -7.85714,2.8571 -9.28571,0.7143 z"
       id="path4723"
       inkscape:connector-curvature="0" />
    <path
       style="fill:#000000;stroke:none;stroke-width:1px;stroke-linecap:butt;stroke-linejoin:miter;stroke-opacity:1;fill-opacity:1"
       d="m 113.57143,1417.2611 -7.85714,10 14.28571,30.7142 -5,95.7143 -12.14286,17.1429 9.28572,4.2857 0.71428,10.7143 15,15.7143 5,-4.2857 5.71429,-12.1429 -7.85714,-70 5.71428,-55 c 0,0 2.14286,-7.1429 1.42857,-12.8571 -0.71428,-5.7143 -6.42857,-12.1429 -6.42857,-12.1429 z"
       id="path4725"
       inkscape:connector-curvature="0" />
    <path
       style="fill:#000000;stroke:none;stroke-width:1px;stroke-linecap:butt;stroke-linejoin:miter;stroke-opacity:1;fill-opacity:1"
       d="m 211.42857,1355.1182 3.57143,16.4286 8.57143,15.7143 15,22.1428 9.28571,102.8572 0.71429,8.5714 -12.14286,2.1428 0.71429,-11.4285 c 0,0 0.71428,-12.1429 -1.42857,-20.7143 -2.14286,-8.5714 -15,-75 -15,-75 L 194.28571,1378.6896 200,1362.9753 Z"
       id="path4727"
       inkscape:connector-curvature="0" />
    <path
       style="fill:#000000;stroke:none;stroke-width:1px;stroke-linecap:butt;stroke-linejoin:miter;stroke-opacity:1;fill-opacity:1"
       d="m 231.42857,1345.8325 22.85714,36.4286 179.28572,-45.7143 c 0,0 9.28571,-1.4286 12.85714,-1.4286 3.57143,0 23.57143,5 23.57143,9.2857 0,4.2857 2.14286,8.5714 2.14286,14.2857 0,5.7143 -21.42857,93.5715 -21.42857,93.5715 0,0 -11.42858,47.8571 -12.14286,52.8571 -0.71429,5 -4.28572,7.1429 -4.28572,7.1429 l -8.57142,-6.4286 -2.85715,-5 -5.71428,2.1428 -0.71429,8.5715 5,10 16.42857,27.8571 6.42857,1.4286 c 0,0 -0.71428,0 1.42858,-3.5714 2.14285,-3.5715 1.42857,0 4.28571,-9.2858 2.85714,-9.2857 3.57143,-7.1428 5,-12.1428 1.42857,-5 0.71429,-3.5714 1.42857,-7.8572 0.71429,-4.2857 2.14286,-5 2.14286,-8.5714 0,-3.5714 -0.71429,-2.8571 0,-6.4286 0.71428,-3.5714 0.71428,-1.4285 1.42857,-5.7142 0.71429,-4.2858 1.42857,-1.4286 1.42857,-5.7143 0,-4.2857 1.42857,-9.2857 1.42857,-9.2857 0,0 -0.71428,0 0.71429,-3.5715 1.42857,-3.5714 2.14286,0 2.85714,-7.1428 0.71429,-7.1429 1.42857,-5 1.42857,-10 0,-5 0.71429,-2.8572 0.71429,-7.1429 0,-4.2857 0,-2.8571 0,-7.1428 0,-4.2858 0.71428,-12.8572 0.71428,-12.8572 l 8.57143,-42.8571 13.57143,-18.5715 10,-16.4285 -7.85714,-15.7143 -16.42857,-17.8572 -24.28572,-5.7142 -180.71428,30.7142 -25,-7.1428 z"
       id="path4729"
       inkscape:connector-curvature="0" />
    <path
       style="fill:#000000;stroke:none;stroke-width:1px;stroke-linecap:butt;stroke-linejoin:miter;stroke-opacity:1;fill-opacity:1"
       d="m 279.28571,1396.5468 c 0,0 10.71429,13.5714 11.42858,20 0.71428,6.4285 9.28571,35 9.28571,40.7143 0,5.7142 10,25.7142 10,25.7142 0,0 17.14286,-6.4285 15.71429,-10.7142 -1.42858,-4.2858 -9.28572,-27.8572 -10,-32.1429 -0.71429,-4.2857 -2.14286,-13.5714 -2.85715,-17.1429 -0.71428,-3.5714 -3.57143,-20.7142 -3.57143,-20.7142 l -27.14285,-6.4286 z"
       id="path4731"
       inkscape:connector-curvature="0" />
    <path
       style="fill:#000000;stroke:none;stroke-width:1px;stroke-linecap:butt;stroke-linejoin:miter;stroke-opacity:1;fill-opacity:1"
       d="m 309.28571,1402.2611 2.14286,25 5,-10 49.28572,-13.5715 c 0,0 4.28571,8.5715 4.28571,12.1429 0,3.5714 -1.42857,19.2857 -5.71429,25 -4.28571,5.7143 -5,8.5714 -5,8.5714 l 26.42858,-1.4286 2.14285,-22.8571 9.28572,-18.5714 c 0,0 -5,-15 -7.85715,-16.4286 -2.85714,-1.4286 -20,-7.1429 -20,-7.1429 0,0 4.28572,5.7143 -5.71428,7.8572 -10,2.1428 -54.28572,11.4286 -54.28572,11.4286 z"
       id="path4733"
       inkscape:connector-curvature="0" />
    <path
       style="fill:#000000;stroke:none;stroke-width:1px;stroke-linecap:butt;stroke-linejoin:miter;stroke-opacity:1;fill-opacity:1"
       d="m 319.28571,1455.1182 40,-5.7143 26.42858,-1.4286 v 0 c 0,0 0,0 0,0 v 0 0 0 0 0 0 0 0 l 0.71428,15.7143 -17.85714,-0.7143 -17.14286,10.7143 -22.14286,2.8572 L 310,1482.9753 Z"
       id="path4735"
       inkscape:connector-curvature="0" />
    <path
       style="fill:#000000;stroke:none;stroke-width:1px;stroke-linecap:butt;stroke-linejoin:miter;stroke-opacity:1;fill-opacity:1"
       d="m 236.42857,1522.9753 136.42857,-20.7142 23.57143,-8.5715 c 0,0 23.57142,2.1429 26.42857,7.1429 2.85715,5 -4.99999,-6.4287 -5.71428,2.1428 -0.71429,8.5715 -11.42857,15.7143 -15,15.7143 -3.57143,0 -38.57143,2.8572 -38.57143,2.8572 l -87.85714,15.7143 -19.28572,9.2857 z"
       id="path4737"
       inkscape:connector-curvature="0" />
  </g>
</svg>
