<?xml version="1.0" encoding="UTF-8" standalone="no"?>
<!-- Created with Inkscape (http://www.inkscape.org/) -->

<svg
   xmlns:dc="http://purl.org/dc/elements/1.1/"
   xmlns:cc="http://creativecommons.org/ns#"
   xmlns:rdf="http://www.w3.org/1999/02/22-rdf-syntax-ns#"
   xmlns:svg="http://www.w3.org/2000/svg"
   xmlns="http://www.w3.org/2000/svg"
   xmlns:sodipodi="http://sodipodi.sourceforge.net/DTD/sodipodi-0.dtd"
   xmlns:inkscape="http://www.inkscape.org/namespaces/inkscape"
   width="512"
   height="512"
   viewBox="0 0 512.00001 512.00001"
   version="1.1"
   id="svg8"
   inkscape:version="0.92.4 (5da689c313, 2019-01-14)"
   sodipodi:docname="U+675F.svg">
  <defs
     id="defs2" />
  <sodipodi:namedview
     id="base"
     pagecolor="#ffffff"
     bordercolor="#666666"
     borderopacity="1.0"
     inkscape:pageopacity="0.0"
     inkscape:pageshadow="2"
     inkscape:zoom="1.4"
     inkscape:cx="320.39199"
     inkscape:cy="235.4959"
     inkscape:document-units="px"
     inkscape:current-layer="layer1"
     showgrid="false"
     units="px"
     inkscape:window-width="1920"
     inkscape:window-height="1017"
     inkscape:window-x="-8"
     inkscape:window-y="-8"
     inkscape:window-maximized="1" />
  <metadata
     id="metadata5">
    <rdf:RDF>
      <cc:Work
         rdf:about="">
        <dc:format>image/svg+xml</dc:format>
        <dc:type
           rdf:resource="http://purl.org/dc/dcmitype/StillImage" />
        <dc:title></dc:title>
      </cc:Work>
    </rdf:RDF>
  </metadata>
  <g
     inkscape:label="圖層 1"
     inkscape:groupmode="layer"
     id="layer1"
     transform="translate(0,-1208.1182)">
    <path
       style="fill:#000000;stroke:none;stroke-width:1px;stroke-linecap:butt;stroke-linejoin:miter;stroke-opacity:1;fill-opacity:1"
       d="m 155,1349.4039 c 0.71429,2.8572 -8.57143,7.8572 -8.57143,7.8572 l 7.85714,11.4285 16.42858,11.4286 8.57142,1.4286 12.85715,-10.7143 30,-10.7143 65,-12.8571 9.28571,-1.4286 4.28572,-9.2857 c 0,0 -5.71429,-5.7143 -8.57143,-5.7143 -2.85715,0 -110,27.1428 -110,27.1428 l -16.42857,3.5715 z"
       id="path4570"
       inkscape:connector-curvature="0" />
    <path
       style="fill:#000000;stroke:none;stroke-width:1px;stroke-linecap:butt;stroke-linejoin:miter;stroke-opacity:1;fill-opacity:1"
       d="m 89.285714,1419.4039 15.714286,15 13.57143,15.7143 11.42857,5.7143 c 0,0 16.42857,57.8571 20,58.5714 3.57143,0.7143 12.14286,5 12.14286,5 l 8.57143,-10 c 0,0 -8.57143,-21.4286 -8.57143,-25 0,-3.5714 -7.14286,-33.5714 -7.14286,-33.5714 l -10.71429,-8.5714 c 0,0 -24.28571,-14.2858 -29.28571,-14.2858 -5,0 -16.428571,-8.5714 -16.428571,-8.5714 z"
       id="path4572"
       inkscape:connector-curvature="0" />
    <path
       style="fill:#000000;stroke:none;stroke-width:1px;stroke-linecap:butt;stroke-linejoin:miter;stroke-opacity:1;fill-opacity:1"
       d="m 164.28571,1430.1182 26.42858,12.8571 109.28571,-30 8.57143,6.4286 -10.71429,46.4286 7.14286,10.7143 12.14286,-23.5715 33.57143,-35 v -5.7142 l -20,-25 c 0,0 -8.57143,6.4285 -12.14286,9.2857 C 315,1399.4039 240,1412.9753 240,1412.9753 Z"
       id="path4574"
       inkscape:connector-curvature="0" />
    <path
       style="fill:#000000;stroke:none;stroke-width:1px;stroke-linecap:butt;stroke-linejoin:miter;stroke-opacity:1;fill-opacity:1"
       d="m 167.14286,1489.4039 c 0,0 -1.54007,20.8014 4.62065,17.2445 6.16071,-3.5569 15.37294,-8.8756 15.37294,-8.8756 l 35.55082,-9.5258 82.31273,-11.7002 -7.14286,-10.7143 -60.71428,7.8571 z"
       id="path4576"
       inkscape:connector-curvature="0" />
    <path
       style="fill:#000000;stroke:none;stroke-width:1px;stroke-linecap:butt;stroke-linejoin:miter;stroke-opacity:1;fill-opacity:1"
       d="m 215.71429,1250.8325 c -2.85715,0 -6.42858,7.1428 -6.42858,7.1428 l 7.14286,2.8572 2.85714,-1.4286 6.42858,10 5.71428,24.2857 -2.14286,322.1429 -5,38.5714 -9.28571,5.7143 -10.71429,0.7143 -6.42857,-12.1429 -2.14285,10.7143 7.14285,16.4286 23.57143,37.1428 c 0,0 3.57143,5.7143 7.14286,5 3.57143,-0.7142 13.57143,-41.4285 13.57143,-41.4285 0,0 2.85714,-11.4286 2.14285,-18.5715 -0.71428,-7.1428 -6.42857,-3.5714 -6.42857,-3.5714 l 10.71429,-338.5714 7.85714,-25 L 260,1278.6896 237.85714,1255.8325 Z"
       id="path4578"
       inkscape:connector-curvature="0" />
    <path
       style="fill:#000000;stroke:none;stroke-width:1px;stroke-linecap:butt;stroke-linejoin:miter;stroke-opacity:1;fill-opacity:1"
       d="m 222.68727,1488.247 v 0 l -1.2587,16.1569 c 0,0 -20,32.1429 -22.85714,32.8572 -2.85714,0.7142 -105.714287,75.7142 -105.714287,75.7142 L 75,1618.6896 c 0,0 16.428572,6.4286 20,6.4286 3.571429,0 51.42857,-17.1429 62.85714,-33.5714 11.42857,-16.4286 65,-59.2857 65,-59.2857 l 4.35577,-1.1672 v -38.1186 z"
       id="path4580"
       inkscape:connector-curvature="0" />
    <path
       style="fill:#000000;stroke:none;stroke-width:1px;stroke-linecap:butt;stroke-linejoin:miter;stroke-opacity:1;fill-opacity:1"
       d="m 247.14286,1522.9753 58.57143,32.8572 153.57142,49.2857 -6.42857,10.7143 -22.14285,-5 c 0,0 -14.28572,2.1428 -17.85715,2.1428 -3.57143,0 -22.85714,5.7143 -22.85714,5.7143 L 358.57143,1616.5468 315,1588.6896 247.14286,1537.9753 Z"
       id="path4582"
       inkscape:connector-curvature="0" />
  </g>
</svg>
