<?xml version="1.0" encoding="UTF-8" standalone="no"?>
<!-- Created with Inkscape (http://www.inkscape.org/) -->

<svg
   xmlns:dc="http://purl.org/dc/elements/1.1/"
   xmlns:cc="http://creativecommons.org/ns#"
   xmlns:rdf="http://www.w3.org/1999/02/22-rdf-syntax-ns#"
   xmlns:svg="http://www.w3.org/2000/svg"
   xmlns="http://www.w3.org/2000/svg"
   xmlns:sodipodi="http://sodipodi.sourceforge.net/DTD/sodipodi-0.dtd"
   xmlns:inkscape="http://www.inkscape.org/namespaces/inkscape"
   width="512"
   height="512"
   viewBox="0 0 512.00001 512.00001"
   version="1.1"
   id="svg8"
   inkscape:version="0.92.4 (5da689c313, 2019-01-14)"
   sodipodi:docname="U+77BB.svg">
  <defs
     id="defs2" />
  <sodipodi:namedview
     id="base"
     pagecolor="#ffffff"
     bordercolor="#666666"
     borderopacity="1.0"
     inkscape:pageopacity="0.0"
     inkscape:pageshadow="2"
     inkscape:zoom="1.4"
     inkscape:cx="197.33028"
     inkscape:cy="261.75427"
     inkscape:document-units="px"
     inkscape:current-layer="layer1"
     showgrid="false"
     units="px"
     inkscape:window-width="1920"
     inkscape:window-height="1017"
     inkscape:window-x="-8"
     inkscape:window-y="-8"
     inkscape:window-maximized="1" />
  <metadata
     id="metadata5">
    <rdf:RDF>
      <cc:Work
         rdf:about="">
        <dc:format>image/svg+xml</dc:format>
        <dc:type
           rdf:resource="http://purl.org/dc/dcmitype/StillImage" />
        <dc:title></dc:title>
      </cc:Work>
    </rdf:RDF>
  </metadata>
  <g
     inkscape:label="圖層 1"
     inkscape:groupmode="layer"
     id="layer1"
     transform="translate(0,-1208.1182)">
    <path
       style="fill:#000000;stroke:none;stroke-width:1px;stroke-linecap:butt;stroke-linejoin:miter;stroke-opacity:1;fill-opacity:1"
       d="m 47.142857,1338.6896 c 0,0 1.428572,16.4286 0.714286,19.2857 -0.714286,2.8572 8.571428,7.8572 8.571428,7.8572 l 4.285715,-0.7143 2.142857,120.7143 c 0,0 9.285714,1.4286 9.285714,-1.4286 0,-2.8571 4.285715,-110 4.285715,-110 l -10.714286,-25.7143 c 0,0 3.571428,-14.2857 -3.571429,-12.1428 -7.142857,2.1428 -15,2.1428 -15,2.1428 z"
       id="path4750"
       inkscape:connector-curvature="0" />
    <path
       style="fill:#000000;stroke:none;stroke-width:1px;stroke-linecap:butt;stroke-linejoin:miter;stroke-opacity:1;fill-opacity:1"
       d="m 63.571429,1300.8325 c 2.857142,5 13.571428,21.4286 16.428571,22.8571 2.857143,1.4286 60.71429,-12.1428 60.71429,-12.1428 0,0 10,1.4285 9.28571,5.7143 -0.71429,4.2857 -4.28571,228.5714 -4.28571,228.5714 0,0 -1.42858,7.8571 7.85714,7.8571 9.28571,0 15,-8.5714 15,-8.5714 0,0 -5.71429,-87.8571 -4.28572,-95 1.42858,-7.1429 3.57143,-107.1429 9.28572,-112.1429 5.71428,-5 15.71428,-18.5714 12.85714,-23.5714 -2.85714,-5 -2.14286,-7.8571 -19.28571,-16.4286 -17.14286,-8.5714 -25,-15 -28.57143,-13.5714 -3.57143,1.4286 -17.14286,7.8572 -20.71429,8.5714 -3.57143,0.7143 -28.571426,10.7143 -34.285711,10.7143 -5.714286,0 -20,-2.8571 -20,-2.8571 z"
       id="path4752"
       inkscape:connector-curvature="0" />
    <path
       style="fill:#000000;stroke:none;stroke-width:1px;stroke-linecap:butt;stroke-linejoin:miter;stroke-opacity:1;fill-opacity:1"
       d="m 76.428572,1374.4039 -3.571429,27.1429 c 0,0 17.142857,-2.1429 20,-2.1429 2.857143,0 33.571427,-11.4286 33.571427,-15 0,-3.5714 -5.71428,-15.7143 -5.71428,-15.7143 0,0 -10.71429,1.4286 -15,4.2857 -4.28572,2.8572 -19.285718,12.8572 -19.285718,12.8572 z"
       id="path4754"
       inkscape:connector-curvature="0" />
    <path
       style="fill:#000000;stroke:none;stroke-width:1px;stroke-linecap:butt;stroke-linejoin:miter;stroke-opacity:1;fill-opacity:1"
       d="m 74.285714,1450.1182 c 3.571429,0 29.999996,-10 29.999996,-10 l 22.14286,6.4286 -4.28571,7.1428 -24.285717,10 -25,4.2857 z"
       id="path4756"
       inkscape:connector-curvature="0" />
    <path
       style="fill:#000000;stroke:none;stroke-width:1px;stroke-linecap:butt;stroke-linejoin:miter;stroke-opacity:1;fill-opacity:1"
       d="m 12.142857,1522.2611 c 0,0 9.285714,23.5714 16.428572,22.8571 7.142857,-0.7143 18.571428,2.8571 20,0 1.428571,-2.8571 3.571428,-13.5714 10,-14.2857 6.428571,-0.7143 83.571431,-47.8572 83.571431,-47.8572 l 2.85714,-5 c 0,0 -1.42857,0 -22.85714,5 -21.42857,5 -68.571431,29.2858 -72.857146,30 C 45,1513.6896 35,1515.8325 35,1515.8325 l -22.142857,2.8571 z"
       id="path4758"
       inkscape:connector-curvature="0" />
    <path
       style="fill:#000000;stroke:none;stroke-width:1px;stroke-linecap:butt;stroke-linejoin:miter;stroke-opacity:1;fill-opacity:1"
       d="m 286.42857,1245.8325 15.71429,34.2857 -15.71429,25 -50,32.8571 25.71429,-33.5714 16.42857,-23.5714 c 0,0 -3.57143,-30 -4.28572,-32.8572 C 273.57143,1245.1182 275,1235.8325 275,1235.8325 Z"
       id="path4764"
       inkscape:connector-curvature="0" />
    <path
       style="fill:#000000;stroke:none;stroke-width:1px;stroke-linecap:butt;stroke-linejoin:miter;stroke-opacity:1;fill-opacity:1"
       d="m 316.42857,1273.6896 c 5.71429,0 17.14286,2.8572 22.85714,4.2857 5.71429,1.4286 19.28572,-2.8571 19.28572,-2.8571 0,0 2.14286,-7.8571 8.57143,-7.8571 6.42857,0 4.28571,-2.1429 11.42857,0 7.14286,2.1428 8.57143,21.4285 8.57143,21.4285 l -15,15 -56.42857,34.2857 -14.28572,0.7143 22.14286,-19.2857 22.85714,-21.4286 c 0,0 -6.42857,-7.1428 -9.28571,-7.8571 -2.85715,-0.7143 -10.71429,-4.2857 -10.71429,-4.2857 l -9.28571,-7.1429 z"
       id="path4766"
       inkscape:connector-curvature="0" />
    <path
       style="fill:#000000;stroke:none;stroke-width:1px;stroke-linecap:butt;stroke-linejoin:miter;stroke-opacity:1;fill-opacity:1"
       d="M 222.85714,1368.6896 375,1341.5468 l 20,-15.7143 33.57143,5.7143 -3.57143,11.4285 -184.28571,40.7143 10,23.5715 c 0,0 5.71428,10.7142 3.57142,14.2857 -2.14285,3.5714 -12.85714,34.2857 -15.71428,36.4285 -2.85714,2.1429 -65,116.4286 -72.14286,122.1429 -7.14286,5.7143 -37.85714,40 -41.42857,43.5714 -3.57143,3.5715 -46.428571,37.1429 -46.428571,37.1429 H 57.857143 L 50,1655.1182 66.428571,1637.9753 c 0,0 12.142858,-11.4285 10.000001,-7.1428 -2.142858,4.2857 -3.571429,11.4286 -3.571429,11.4286 0,0 6.428571,2.8571 9.285714,-0.7143 2.857143,-3.5715 33.571433,-27.8572 38.571433,-28.5715 5,-0.7142 48.57142,-50 48.57142,-50 l 33.57143,-60 26.42857,-45.7142 7.85715,-39.2858 c 0,0 -0.71429,-15 -2.14286,-17.8571 -1.42857,-2.8571 -8.57143,-14.2857 -8.57143,-14.2857 0,0 -5.71428,2.1428 -7.14286,-5 -1.42857,-7.1429 -1.42857,-12.1429 -1.42857,-12.1429 z"
       id="path4768"
       inkscape:connector-curvature="0" />
    <path
       style="fill:#000000;stroke:none;stroke-width:1px;stroke-linecap:butt;stroke-linejoin:miter;stroke-opacity:1;fill-opacity:1"
       d="m 259.28571,1390.1182 c 0,0 12.14286,6.4286 12.14286,11.4286 0,5 -0.71428,17.1428 -3.57143,22.8571 -2.85714,5.7143 -15,12.1429 -8.57143,12.8572 6.42858,0.7142 34.28572,-16.4286 37.14286,-19.2858 2.85714,-2.8571 1.42857,-7.8571 -0.71428,-12.8571 -2.14286,-5 -14.28572,-18.5714 -14.28572,-18.5714 z"
       id="path4770"
       inkscape:connector-curvature="0" />
    <path
       style="fill:#000000;stroke:none;stroke-width:1px;stroke-linecap:butt;stroke-linejoin:miter;stroke-opacity:1;fill-opacity:1"
       d="m 356.42857,1364.4039 c 0,0 2.85714,17.1429 2.85714,21.4286 0,4.2857 22.85715,13.5714 22.85715,13.5714 l 19.28571,-3.5714 8.57143,-5 c 0,0 -7.85714,-4.2857 -15,-4.2857 -7.14286,0 -18.57143,-3.5715 -18.57143,-3.5715 l -7.14286,-15 -7.85714,-12.8571 -5,13.5714 z"
       id="path4772"
       inkscape:connector-curvature="0" />
    <path
       style="fill:#000000;stroke:none;stroke-width:1px;stroke-linecap:butt;stroke-linejoin:miter;stroke-opacity:1;fill-opacity:1"
       d="m 208.57143,1470.1182 7.14286,-5 c 0,0 29.28571,2.1429 32.14285,2.1429 2.85715,0 32.85715,-3.5715 38.57143,-6.4286 5.71429,-2.8572 77.14286,-18.5714 80,-19.2857 2.85714,-0.7143 54.28572,-12.1429 54.28572,-12.1429 l 6.42857,-0.7143 c 0,0 20.71428,7.1429 20.71428,11.4286 0,4.2857 2.85715,14.2857 2.85715,14.2857 l -17.14286,0.7143 c 0,0 -19.28572,-9.2857 -22.14286,-9.2857 -2.85714,0 -18.57143,-1.4286 -18.57143,-1.4286 l -129.28571,30 -37.85714,16.4286 z"
       id="path4776"
       inkscape:connector-curvature="0" />
    <path
       style="fill:#000000;stroke:none;stroke-width:1px;stroke-linecap:butt;stroke-linejoin:miter;stroke-opacity:1;fill-opacity:1"
       d="m 299.28571,1411.5468 c 4.28572,0 48.57143,10 47.85715,12.8571 -0.71429,2.8572 -4.28572,22.1429 -4.28572,22.1429 l -20,4.2857 c 0,0 -7.85714,-12.1429 -7.85714,-15 0,-2.8572 -9.28571,-18.5714 -9.28571,-18.5714 z"
       id="path4778"
       inkscape:connector-curvature="0" />
    <path
       style="fill:#000000;stroke:none;stroke-width:1px;stroke-linecap:butt;stroke-linejoin:miter;stroke-opacity:1;fill-opacity:1"
       d="m 260,1494.4039 c 10.71429,0 27.14286,3.5714 27.14286,3.5714 l 20.71428,-7.1428 38.57143,-14.2857 c 0,0 10,-4.2857 12.14286,0.7143 2.14286,5 2.14286,10 2.14286,10 l -70.71429,20 -14.28571,2.1428 z"
       id="path4780"
       inkscape:connector-curvature="0" />
    <path
       style="fill:#000000;stroke:none;stroke-width:1px;stroke-linecap:butt;stroke-linejoin:miter;stroke-opacity:1;fill-opacity:1"
       d="m 251.42857,1547.2611 c 6.42857,-5 7.85714,-6.4286 7.85714,-6.4286 l 20,1.4286 c 0,0 80.71429,-20 84.28572,-21.4286 3.57143,-1.4286 10.71428,6.4286 10.71428,6.4286 l -5.71428,10.7142 -43.57143,2.8572 -39.28571,14.2857 -22.85715,1.4286 z"
       id="path4782"
       inkscape:connector-curvature="0" />
    <path
       style="fill:#000000;stroke:none;stroke-width:1px;stroke-linecap:butt;stroke-linejoin:miter;stroke-opacity:1;fill-opacity:1"
       d="m 235.71429,1567.9753 c 0,0 27.14285,13.5715 30,14.2858 2.85714,0.7142 16.42857,2.8571 16.42857,2.8571 0,0 23.57143,31.4286 21.42857,42.1429 C 301.42857,1637.9753 300,1650.1182 300,1650.1182 l -12.85714,-15 -13.57143,-28.5714 -14.28572,-14.2857 c 0,0 -7.85714,-5.7143 -10.71428,-8.5715 -2.85714,-2.8571 -10.71429,-9.2857 -10.71429,-9.2857 z"
       id="path4784"
       inkscape:connector-curvature="0" />
    <path
       style="fill:#000000;stroke:none;stroke-width:1px;stroke-linecap:butt;stroke-linejoin:miter;stroke-opacity:1;fill-opacity:1"
       d="M 282.14286,1585.1182 336.42857,1567.2611 355,1559.4039 c 0,0 32.14286,10.7143 32.14286,14.2857 0,3.5715 9.28571,10.7143 2.14285,14.2857 -7.14285,3.5715 -15.71428,7.8572 -15.71428,7.8572 l -5,20.7143 -15,5.7143 3.57143,-29.2858 -6.42857,-11.4285 -60,18.5714 z"
       id="path4786"
       inkscape:connector-curvature="0" />
    <path
       style="fill:#000000;stroke:none;stroke-width:1px;stroke-linecap:butt;stroke-linejoin:miter;stroke-opacity:1;fill-opacity:1"
       d="m 305,1627.2611 48.57143,-5 15,-5.7143 v 0 0 l 18.57143,9.2857 -5.71429,9.2857 -67.14286,7.1429 L 300,1650.1182 Z"
       id="path4788"
       inkscape:connector-curvature="0" />
  </g>
</svg>
