<?xml version="1.0" encoding="UTF-8" standalone="no"?>
<!-- Created with Inkscape (http://www.inkscape.org/) -->

<svg
   xmlns:dc="http://purl.org/dc/elements/1.1/"
   xmlns:cc="http://creativecommons.org/ns#"
   xmlns:rdf="http://www.w3.org/1999/02/22-rdf-syntax-ns#"
   xmlns:svg="http://www.w3.org/2000/svg"
   xmlns="http://www.w3.org/2000/svg"
   xmlns:sodipodi="http://sodipodi.sourceforge.net/DTD/sodipodi-0.dtd"
   xmlns:inkscape="http://www.inkscape.org/namespaces/inkscape"
   width="512"
   height="512"
   viewBox="0 0 512.00001 512.00001"
   version="1.1"
   id="svg8"
   inkscape:version="0.92.4 (5da689c313, 2019-01-14)"
   sodipodi:docname="U+773A.svg">
  <defs
     id="defs2" />
  <sodipodi:namedview
     id="base"
     pagecolor="#ffffff"
     bordercolor="#666666"
     borderopacity="1.0"
     inkscape:pageopacity="0.0"
     inkscape:pageshadow="2"
     inkscape:zoom="1.4"
     inkscape:cx="197.33028"
     inkscape:cy="261.75427"
     inkscape:document-units="px"
     inkscape:current-layer="layer1"
     showgrid="false"
     units="px"
     inkscape:window-width="1920"
     inkscape:window-height="1017"
     inkscape:window-x="-8"
     inkscape:window-y="-8"
     inkscape:window-maximized="1" />
  <metadata
     id="metadata5">
    <rdf:RDF>
      <cc:Work
         rdf:about="">
        <dc:format>image/svg+xml</dc:format>
        <dc:type
           rdf:resource="http://purl.org/dc/dcmitype/StillImage" />
        <dc:title></dc:title>
      </cc:Work>
    </rdf:RDF>
  </metadata>
  <g
     inkscape:label="圖層 1"
     inkscape:groupmode="layer"
     id="layer1"
     transform="translate(0,-1208.1182)">
    <path
       style="fill:#000000;stroke:none;stroke-width:1px;stroke-linecap:butt;stroke-linejoin:miter;stroke-opacity:1;fill-opacity:1"
       d="m 17.857143,1308.6896 33.571428,42.1429 -2.857142,137.1428 c 0,0 -9.285715,10 -10,7.1429 -0.714286,-2.8571 -12.142858,-12.1429 -9.285715,-19.2857 C 32.142857,1468.6896 35,1410.1182 35,1405.1182 c 0,-5 -0.714286,-47.8571 -0.714286,-47.8571 l -18.571428,-41.4286 v -5.7143 z"
       id="path4801"
       inkscape:connector-curvature="0" />
    <path
       style="fill:#000000;stroke:none;stroke-width:1px;stroke-linecap:butt;stroke-linejoin:miter;stroke-opacity:1;fill-opacity:1"
       d="m 40,1300.8325 4.285714,12.8571 15,5.7143 56.428576,-15.7143 2.85714,8.5715 2.85714,216.4285 -3.57143,1.4286 -3.57143,6.4286 11.42858,23.5714 c 0,0 -0.71429,22.8571 8.57142,5.7143 9.28572,-17.1429 10,-26.4286 7.14286,-17.8572 -2.85714,8.5715 1.42857,-22.8571 1.42857,-28.5714 0,-5.7143 -7.85714,-173.5714 -6.42857,-177.1428 1.42857,-3.5715 7.85714,-23.5715 7.85714,-23.5715 l 9.28572,-10.7143 -32.85714,-27.8571 -4.28572,5.7143 -63.571427,16.4286 z"
       id="path4803"
       inkscape:connector-curvature="0" />
    <path
       style="fill:#000000;stroke:none;stroke-width:1px;stroke-linecap:butt;stroke-linejoin:miter;stroke-opacity:1;fill-opacity:1"
       d="M 66.428571,1390.8325 75,1399.4039 l 28.57143,-10 c 0,0 7.14286,-5 0.71428,-7.1428 -6.428567,-2.1429 -26.428567,-5.7143 -26.428567,-5.7143 z"
       id="path4805"
       inkscape:connector-curvature="0" />
    <path
       style="fill:#000000;stroke:none;stroke-width:1px;stroke-linecap:butt;stroke-linejoin:miter;stroke-opacity:1;fill-opacity:1"
       d="m 65.714286,1438.6896 c 2.857143,-1.4285 17.142857,-15 17.142857,-15 l 11.428571,2.8572 c 0,0 2.142858,7.1428 -1.428571,8.5714 C 89.285714,1436.5468 85,1448.6896 81.428572,1448.6896 77.857143,1448.6896 65,1447.9753 65,1447.9753 l -5.714286,-4.2857 z"
       id="path4807"
       inkscape:connector-curvature="0" />
    <path
       style="fill:#000000;stroke:none;stroke-width:1px;stroke-linecap:butt;stroke-linejoin:miter;stroke-opacity:1;fill-opacity:1"
       d="m 0.71428572,1515.1182 c 0,0 29.28571428,-5.7143 33.57142828,-6.4286 4.285715,-0.7143 65,-42.1428 65,-42.1428 l 9.285716,-12.1429 8.57143,-2.8571 3.57143,10 -7.14286,2.8571 -25.714287,24.2857 -58.571429,45.7143 -26.4285711,0.7143 -3.57142862,-6.4286 z"
       id="path4809"
       inkscape:connector-curvature="0" />
    <path
       style="fill:#000000;stroke:none;stroke-width:1px;stroke-linecap:butt;stroke-linejoin:miter;stroke-opacity:1;fill-opacity:1"
       d="m 201.42857,1279.4039 7.85714,17.8572 v 54.2857 l -20,139.2857 -14.28571,36.4286 -16.42857,22.8571 19.28571,-3.5714 14.28572,-17.8572 9.28571,-43.5714 21.42857,-130 c 0,0 12.85715,-31.4286 12.85715,-35 0,-3.5714 -1.42858,-21.4286 -5.71429,-24.2857 -4.28571,-2.8572 -16.42857,-10.7143 -16.42857,-10.7143 z"
       id="path4811"
       inkscape:connector-curvature="0" />
    <path
       style="fill:#000000;stroke:none;stroke-width:1px;stroke-linecap:butt;stroke-linejoin:miter;stroke-opacity:1;fill-opacity:1"
       d="m 154.28571,1364.4039 50.71429,10 -10.71429,5.7143 L 145,1393.6896 Z"
       id="path4813"
       inkscape:connector-curvature="0" />
    <path
       style="fill:#000000;stroke:none;stroke-width:1px;stroke-linecap:butt;stroke-linejoin:miter;stroke-opacity:1;fill-opacity:1"
       d="m 142.85714,1447.2611 11.42857,33.5714 45.71429,-52.1429 -2.85714,-5.7143 -5,-2.8571 -48.57143,30 z"
       id="path4815"
       inkscape:connector-curvature="0" />
    <path
       style="fill:#000000;stroke:none;stroke-width:1px;stroke-linecap:butt;stroke-linejoin:miter;stroke-opacity:1;fill-opacity:1"
       d="m 280,1258.6896 14.28571,25 c 0,0 -26.42857,147.8572 -27.14285,155.7143 -0.71429,7.8572 4.28571,112.1429 4.28571,112.1429 l 36.42857,7.1428 170,-8.5714 c 0,0 30,-6.4286 29.28572,-10 -0.71429,-3.5714 0,-32.1429 0,-32.1429 0,0 -17.14286,-20.7142 -17.85715,-16.4285 -0.71428,4.2857 -0.71428,28.5714 -4.28571,36.4285 -3.57143,7.8572 -50.71429,15.7143 -53.57143,16.4286 -2.85714,0.7143 -110.71428,4.2857 -110.71428,4.2857 l -18.57143,-6.4285 -10.71429,-5.7143 -10.71428,-97.1429 c 0,0 31.42857,-138.5714 32.14285,-142.1428 0.71429,-3.5715 7.85715,-15 7.85715,-15 l -22.85715,-34.2858 -7.14285,-7.8571 -15.71429,-5 -4.28571,6.4286 z"
       id="path4817"
       inkscape:connector-curvature="0" />
    <path
       style="fill:#000000;stroke:none;stroke-width:1px;stroke-linecap:butt;stroke-linejoin:miter;stroke-opacity:1;fill-opacity:1"
       d="m 334.28571,1276.5468 4.28572,33.5714 c 0,0 4.28571,17.1429 4.28571,20.7143 0,3.5714 -2.14285,28.5714 -1.42857,35 0.71429,6.4286 -2.14286,60 -2.14286,60 0,0 11.42858,-2.1429 12.14286,-5 0.71429,-2.8572 8.57143,-55 7.85714,-57.8572 -0.71428,-2.8571 -5,-40.7142 -5,-40.7142 l 6.42858,-29.2858 L 345,1275.8325 Z"
       id="path4819"
       inkscape:connector-curvature="0" />
    <path
       style="fill:#000000;stroke:none;stroke-width:1px;stroke-linecap:butt;stroke-linejoin:miter;stroke-opacity:1;fill-opacity:1"
       d="m 355,1339.4039 29.28571,-16.4286 12.14286,-3.5714 7.14286,3.5714 v 8.5715 c 0,0 -3.57143,9.2857 -7.85714,11.4285 -4.28572,2.1429 -18.57143,12.1429 -21.42858,12.1429 -2.85714,0 -13.57142,4.2857 -13.57142,4.2857 z"
       id="path4821"
       inkscape:connector-curvature="0" />
    <path
       style="fill:#000000;stroke:none;stroke-width:1px;stroke-linecap:butt;stroke-linejoin:miter;stroke-opacity:1;fill-opacity:1"
       d="m 319.28571,1438.6896 29.28572,-0.7143 32.14286,5 11.42857,10 -13.57143,7.8572 -26.42857,0.7143 -26.42857,-2.1429 c 0,0 -9.28572,5.7143 -9.28572,-2.1428 0,-7.8572 2.85714,-18.5715 2.85714,-18.5715 z"
       id="path4823"
       inkscape:connector-curvature="0" />
  </g>
</svg>
