<?xml version="1.0" encoding="UTF-8" standalone="no"?>
<!-- Created with Inkscape (http://www.inkscape.org/) -->

<svg
   xmlns:dc="http://purl.org/dc/elements/1.1/"
   xmlns:cc="http://creativecommons.org/ns#"
   xmlns:rdf="http://www.w3.org/1999/02/22-rdf-syntax-ns#"
   xmlns:svg="http://www.w3.org/2000/svg"
   xmlns="http://www.w3.org/2000/svg"
   xmlns:sodipodi="http://sodipodi.sourceforge.net/DTD/sodipodi-0.dtd"
   xmlns:inkscape="http://www.inkscape.org/namespaces/inkscape"
   width="512"
   height="512"
   viewBox="0 0 512.00001 512.00001"
   version="1.1"
   id="svg8"
   inkscape:version="0.92.4 (5da689c313, 2019-01-14)"
   sodipodi:docname="U+77DC.svg">
  <defs
     id="defs2" />
  <sodipodi:namedview
     id="base"
     pagecolor="#ffffff"
     bordercolor="#666666"
     borderopacity="1.0"
     inkscape:pageopacity="0.0"
     inkscape:pageshadow="2"
     inkscape:zoom="1.4"
     inkscape:cx="197.33028"
     inkscape:cy="261.75427"
     inkscape:document-units="px"
     inkscape:current-layer="layer1"
     showgrid="false"
     units="px"
     inkscape:window-width="1920"
     inkscape:window-height="1017"
     inkscape:window-x="-8"
     inkscape:window-y="-8"
     inkscape:window-maximized="1" />
  <metadata
     id="metadata5">
    <rdf:RDF>
      <cc:Work
         rdf:about="">
        <dc:format>image/svg+xml</dc:format>
        <dc:type
           rdf:resource="http://purl.org/dc/dcmitype/StillImage" />
        <dc:title></dc:title>
      </cc:Work>
    </rdf:RDF>
  </metadata>
  <g
     inkscape:label="圖層 1"
     inkscape:groupmode="layer"
     id="layer1"
     transform="translate(0,-1208.1182)">
    <path
       style="fill:#000000;stroke:none;stroke-width:1px;stroke-linecap:butt;stroke-linejoin:miter;stroke-opacity:1;fill-opacity:1"
       d="m 35.714286,1284.4039 v 6.4286 l 13.571428,16.4286 -7.857143,40.7142 22.857143,14.2858 c 0,0 8.571429,-16.4286 10,-20 1.428572,-3.5715 49.285716,-32.8572 49.285716,-32.8572 l 15.71428,6.4286 -18.57142,50 -12.85715,8.5714 4.28572,2.8572 17.85714,-12.8572 35,-43.5714 31.42857,-13.5714 c 0,0 -23.57143,-15 -26.42857,-19.2858 -2.85714,-4.2857 -17.85714,-15 -17.85714,-15 l -27.85715,22.8572 -38.571424,11.4286 L 71.428572,1289.4039 50,1281.5468 Z"
       id="path4632"
       inkscape:connector-curvature="0" />
    <path
       style="fill:#000000;stroke:none;stroke-width:1px;stroke-linecap:butt;stroke-linejoin:miter;stroke-opacity:1;fill-opacity:1"
       d="M 94.285714,1391.5468 73.928572,1371.1896 H 95 l 11.64515,3.1203 12.4387,12.4387 6.38819,11.0647 1.62885,6.079 h -13.52946 z"
       id="path4634"
       inkscape:connector-curvature="0" />
    <path
       style="fill:#000000;stroke:none;stroke-width:1px;stroke-linecap:butt;stroke-linejoin:miter;stroke-opacity:1;fill-opacity:1"
       d="M 8.5714286,1436.5468 0.71428572,1458.6896 3.5714286,1470.8325 165,1417.2611 l 7.85714,7.1428 -30,27.8572 6.42857,5.7142 55,-28.5714 -1.42857,-10 -21.42857,-17.1428 -158.571427,38.5714 z"
       id="path4636"
       inkscape:connector-curvature="0" />
    <path
       style="fill:#000000;stroke:none;stroke-width:1px;stroke-linecap:butt;stroke-linejoin:miter;stroke-opacity:1;fill-opacity:1"
       d="m 20,1524.4039 -7.857143,2.8572 -7.8571427,10.7142 21.4285717,9.2858 22.142857,-23.5715 44.285714,-49.2857 21.428573,-20.7143 2.14286,-15.7143 0.71428,-2.8571 -13.57143,7.8571 2.14286,6.4286 -69.285714,70 z"
       id="path4638"
       inkscape:connector-curvature="0" />
    <path
       style="fill:#000000;stroke:none;stroke-width:1px;stroke-linecap:butt;stroke-linejoin:miter;stroke-opacity:1;fill-opacity:1"
       d="m 76.428572,1458.6896 27.142858,25 c 0,0 10,36.4286 8.57143,39.2857 -1.42857,2.8572 -13.571431,60.7143 -13.571431,60.7143 L 65,1567.9753 59.285714,1564.4039 55,1581.5468 c 0,0 25,48.5714 30,49.2857 5,0.7143 23.57143,-24.2857 23.57143,-24.2857 0,0 -5.71429,-25 -0.71429,-31.4286 5,-6.4286 12.14286,-77.1429 12.14286,-77.1429 l 3.57143,-10.7142 -11.16026,-19.3302 -22.665746,-13.086 -10.720236,2.8724 z"
       id="path4640"
       inkscape:connector-curvature="0" />
    <path
       style="fill:#000000;stroke:none;stroke-width:1px;stroke-linecap:butt;stroke-linejoin:miter;stroke-opacity:1;fill-opacity:1"
       d="m 251.42857,1278.6896 -6.42857,9.2857 20,13.5715 13.57143,7.8571 -50.71429,102.8572 -32.85714,45 -31.42857,16.4285 -16.42857,7.8572 c 0,0 -10.71429,12.1428 21.42857,2.8571 32.14286,-9.2857 40,-20 40,-20 0,0 30.71428,-35.7143 30.71428,-40.7143 0,-5 0.71429,-16.4285 3.57143,-18.5714 2.85715,-2.1429 36.42857,-70.7143 39.28572,-74.2857 2.85714,-3.5714 8.57143,-19.2857 8.57143,-19.2857 l -4.28572,-12.1429 c 0,0 -14.28571,-7.8571 -15.71428,-10.7143 -1.42858,-2.8571 -19.28572,-10 -19.28572,-10 z"
       id="path4642"
       inkscape:connector-curvature="0" />
    <path
       style="fill:#000000;stroke:none;stroke-width:1px;stroke-linecap:butt;stroke-linejoin:miter;stroke-opacity:1;fill-opacity:1"
       d="m 290.71429,1311.5468 v 0 l -4.3592,16.2687 18.64491,8.017 35.71429,37.8571 c 0,0 15.71428,7.8572 16.42857,15 0.71428,7.1429 66.42857,87.1429 66.42857,87.1429 L 460,1462.9753 l 50.71429,6.4286 2.85714,-7.1428 -90,-44.2858 -45.71429,-22.1428 L 340,1347.2611 300,1325.1182 Z"
       id="path4644"
       inkscape:connector-curvature="0" />
    <path
       style="fill:#000000;stroke:none;stroke-width:1px;stroke-linecap:butt;stroke-linejoin:miter;stroke-opacity:1;fill-opacity:1"
       d="m 242.85714,1434.4039 -3.05792,5.2965 13.52358,13.5236 61.35777,-16.4408 4.03732,-6.9928 -8.1236,-8.1236 z"
       id="path4646"
       inkscape:connector-curvature="0" />
    <path
       style="fill:#000000;stroke:none;stroke-width:1px;stroke-linecap:butt;stroke-linejoin:miter;stroke-opacity:1;fill-opacity:1"
       d="m 162.14286,1507.2611 c 0,0 5,18.5714 11.42857,21.4285 C 180,1531.5468 195,1527.9753 195,1527.9753 l 42.14286,-19.2857 89.28571,-10 55.71429,6.4286 10,-10 -23.57143,-17.8571 -179.28572,31.4285 z"
       id="path4648"
       inkscape:connector-curvature="0" />
    <path
       style="fill:#000000;stroke:none;stroke-width:1px;stroke-linecap:butt;stroke-linejoin:miter;stroke-opacity:1;fill-opacity:1"
       d="m 281.42857,1554.4039 1.42857,50.7143 -12.14285,12.8571 15,17.1429 L 300,1599.4039 295.71429,1555.1182 305,1535.8325 l -34.28571,-19.2857 -1.42858,9.2857 12.85715,22.1428 0.71428,10 z"
       id="path4650"
       inkscape:connector-curvature="0" />
  </g>
</svg>
