<?xml version="1.0" encoding="UTF-8" standalone="no"?>
<!-- Created with Inkscape (http://www.inkscape.org/) -->

<svg
   xmlns:dc="http://purl.org/dc/elements/1.1/"
   xmlns:cc="http://creativecommons.org/ns#"
   xmlns:rdf="http://www.w3.org/1999/02/22-rdf-syntax-ns#"
   xmlns:svg="http://www.w3.org/2000/svg"
   xmlns="http://www.w3.org/2000/svg"
   xmlns:sodipodi="http://sodipodi.sourceforge.net/DTD/sodipodi-0.dtd"
   xmlns:inkscape="http://www.inkscape.org/namespaces/inkscape"
   width="512"
   height="512"
   viewBox="0 0 512.00001 512.00001"
   version="1.1"
   id="svg8"
   inkscape:version="0.92.4 (5da689c313, 2019-01-14)"
   sodipodi:docname="U+838A.svg">
  <defs
     id="defs2" />
  <sodipodi:namedview
     id="base"
     pagecolor="#ffffff"
     bordercolor="#666666"
     borderopacity="1.0"
     inkscape:pageopacity="0.0"
     inkscape:pageshadow="2"
     inkscape:zoom="1.4"
     inkscape:cx="197.33028"
     inkscape:cy="261.75427"
     inkscape:document-units="px"
     inkscape:current-layer="layer1"
     showgrid="false"
     units="px"
     inkscape:window-width="1920"
     inkscape:window-height="1017"
     inkscape:window-x="-8"
     inkscape:window-y="-8"
     inkscape:window-maximized="1" />
  <metadata
     id="metadata5">
    <rdf:RDF>
      <cc:Work
         rdf:about="">
        <dc:format>image/svg+xml</dc:format>
        <dc:type
           rdf:resource="http://purl.org/dc/dcmitype/StillImage" />
        <dc:title></dc:title>
      </cc:Work>
    </rdf:RDF>
  </metadata>
  <g
     inkscape:label="圖層 1"
     inkscape:groupmode="layer"
     id="layer1"
     transform="translate(0,-1208.1182)">
    <path
       style="fill:#000000;stroke:none;stroke-width:1px;stroke-linecap:butt;stroke-linejoin:miter;stroke-opacity:1;fill-opacity:1"
       d="m 216.42857,1240.8325 c 0,0.7143 41.42857,45 41.42857,45 0,0 24.28572,4.2857 24.28572,-0.7143 0,-5 8.57143,-14.2857 4.28571,-17.8571 -4.28571,-3.5715 -12.85714,-19.2858 -16.42857,-20 -3.57143,-0.7143 -15.71429,-7.1429 -20,-7.1429 -4.28571,0 -20,0.7143 -20,0.7143 z"
       id="path4663"
       inkscape:connector-curvature="0" />
    <path
       style="fill:#000000;stroke:none;stroke-width:1px;stroke-linecap:butt;stroke-linejoin:miter;stroke-opacity:1;fill-opacity:1"
       d="m 121.42857,1313.6896 90.71429,-13.5714 45.71428,-14.2857 172.14286,-2.8572 12.85714,-5 c 0,0 5.71429,-1.4285 9.28572,0.7143 3.57143,2.1429 9.28571,10 12.85714,12.1429 3.57143,2.1428 26.42857,2.1428 -0.71429,10.7143 -27.14285,8.5714 -31.42857,6.4285 -37.14285,5.7143 -5.71429,-0.7143 -32.85715,-9.2858 -32.85715,-9.2858 l -40,-2.1428 c 0,0 -44.28571,-0.7143 -50,-0.7143 -5.71428,0 -36.42857,0 -36.42857,0 l -61.11148,16.3748 -44.6028,17.9109 -22.14286,3.5714 -17.14286,2.1429 -12.14285,-7.8571 -7.14286,-7.1429 1.42857,-15.7143 7.85714,-0.7143 z"
       id="path4665"
       inkscape:connector-curvature="0" />
    <path
       style="fill:#000000;stroke:none;stroke-width:1px;stroke-linecap:butt;stroke-linejoin:miter;stroke-opacity:1;fill-opacity:1"
       d="m 119.28571,1395.1182 h 16.42858 l 15.71428,2.8571 7.14286,5.7143 -10,10 -15,2.1429 -13.57143,1.4286 -5.71429,-14.2858 2.14286,-5 z"
       id="path4667"
       inkscape:connector-curvature="0" />
    <path
       style="fill:#000000;stroke:none;stroke-width:1px;stroke-linecap:butt;stroke-linejoin:miter;stroke-opacity:1;fill-opacity:1"
       d="m 45.714286,1487.2611 31.428571,-2.8572 c 0,0 48.571433,-10 52.142853,-10 3.57143,0 10.71429,-1.4286 10.71429,-1.4286 l -20,13.5715 c 0,0 -28.571428,20 -36.428571,26.4285 -7.857143,6.4286 -16.428572,5.7143 -16.428572,5.7143 l -14.285714,-12.1428 -11.428572,-15 2.857143,-1.4286 z"
       id="path4669"
       inkscape:connector-curvature="0" />
    <path
       style="fill:#000000;stroke:none;stroke-width:1px;stroke-linecap:butt;stroke-linejoin:miter;stroke-opacity:1;fill-opacity:1"
       d="m 176.42857,1354.4039 14.28572,22.1429 -29.28572,127.1428 c 0,0 -20,54.2857 -26.42857,56.4286 -6.42857,2.1429 -15,-6.4286 -15,-6.4286 l -5,-1.4285 c 0,0 -10,10.7142 -9.28571,16.4285 0.71428,5.7143 1.42857,11.4286 1.42857,11.4286 0,0 -5,11.4286 -4.28572,15 0.71429,3.5714 10.71429,8.5714 14.28572,8.5714 3.57143,0 17.85714,-2.8571 21.42857,-10.7143 3.57143,-7.8571 20,-31.4285 20.71428,-40 0.71429,-8.5714 22.14286,-71.4285 22.14286,-75.7142 0,-4.2858 4.28572,-42.8572 4.28572,-42.8572 l 15.71428,-57.8571 -9.28571,-32.1429 -10.71429,-10 z"
       id="path4671"
       inkscape:connector-curvature="0" />
    <path
       style="fill:#000000;stroke:none;stroke-width:1px;stroke-linecap:butt;stroke-linejoin:miter;stroke-opacity:1;fill-opacity:1"
       d="m 232.14286,1410.8325 19.28571,6.4286 117.14286,-31.4286 h 23.57143 c 0,0 6.42857,10.7143 5,13.5714 -1.42857,2.8572 5,11.4286 -7.14286,11.4286 -12.14286,0 -123.57143,20 -123.57143,20 l -22.85714,16.4286 -13.57143,-7.8572 -0.71429,-29.2857 z"
       id="path4673"
       inkscape:connector-curvature="0" />
    <path
       style="fill:#000000;stroke:none;stroke-width:1px;stroke-linecap:butt;stroke-linejoin:miter;stroke-opacity:1;fill-opacity:1"
       d="m 275,1344.4039 22.14286,13.5714 4.28571,44.2858 5.71429,82.8571 h 11.42857 l 10,-123.5714 v -7.8572 l -21.42857,-14.2857 -25.71429,-7.8571 z"
       id="path4675"
       inkscape:connector-curvature="0" />
    <path
       style="fill:#000000;stroke:none;stroke-width:1px;stroke-linecap:butt;stroke-linejoin:miter;stroke-opacity:1;fill-opacity:1"
       d="m 200,1497.2611 18.57143,39.2857 66.42857,-22.8572 46.42857,-1.4285 59.28572,3.5714 c 0,0 20,5.7143 25,3.5714 5,-2.1428 17.85714,-7.1428 13.57142,-11.4286 C 425,1503.6896 410,1492.2611 405,1490.1182 c -5,-2.1429 -47.85714,-5 -50.71429,-5 -2.85714,0 -97.85714,9.2857 -97.85714,9.2857 0,0 -32.85714,8.5714 -35.71428,7.8572 -2.85715,-0.7143 -20.71429,-5 -20.71429,-5 z"
       id="path4677"
       inkscape:connector-curvature="0" />
  </g>
</svg>
