<?xml version="1.0" encoding="UTF-8" standalone="no"?>
<!-- Created with Inkscape (http://www.inkscape.org/) -->

<svg
   xmlns:dc="http://purl.org/dc/elements/1.1/"
   xmlns:cc="http://creativecommons.org/ns#"
   xmlns:rdf="http://www.w3.org/1999/02/22-rdf-syntax-ns#"
   xmlns:svg="http://www.w3.org/2000/svg"
   xmlns="http://www.w3.org/2000/svg"
   xmlns:sodipodi="http://sodipodi.sourceforge.net/DTD/sodipodi-0.dtd"
   xmlns:inkscape="http://www.inkscape.org/namespaces/inkscape"
   width="512"
   height="512"
   viewBox="0 0 512 512"
   version="1.1"
   id="svg8"
   inkscape:version="0.92.4 (5da689c313, 2019-01-14)"
   sodipodi:docname="U+4EF0.svg">
  <defs
     id="defs2" />
  <sodipodi:namedview
     id="base"
     pagecolor="#ffffff"
     bordercolor="#666666"
     borderopacity="1.0"
     inkscape:pageopacity="0.0"
     inkscape:pageshadow="2"
     inkscape:zoom="1.4"
     inkscape:cx="343.93539"
     inkscape:cy="279.03271"
     inkscape:document-units="px"
     inkscape:current-layer="layer1"
     showgrid="false"
     units="px"
     inkscape:window-width="1920"
     inkscape:window-height="1017"
     inkscape:window-x="-8"
     inkscape:window-y="-8"
     inkscape:window-maximized="1" />
  <metadata
     id="metadata5">
    <rdf:RDF>
      <cc:Work
         rdf:about="">
        <dc:format>image/svg+xml</dc:format>
        <dc:type
           rdf:resource="http://purl.org/dc/dcmitype/StillImage" />
        <dc:title></dc:title>
      </cc:Work>
    </rdf:RDF>
  </metadata>
  <g
     inkscape:label="圖層 1"
     inkscape:groupmode="layer"
     id="layer1"
     transform="translate(0,-161.53331)">
    <path
       style="fill:#000000;stroke:none;stroke-width:1px;stroke-linecap:butt;stroke-linejoin:miter;stroke-opacity:1;fill-opacity:1"
       d="M 117.85714,272.81902 107.14286,280.67617 116.42857,292.10474 122.14286,307.10474 77.857143,393.53331 25,446.39045 26.428571,460.67617 C 26.428571,460.67617 78.571429,419.2476 81.428571,415.67617 84.285714,412.10474 138.57143,339.2476 138.57143,339.2476 L 158.57143,303.53331 Z"
       id="path916"
       inkscape:connector-curvature="0" />
    <path
       style="fill:#000000;stroke:none;stroke-width:1px;stroke-linecap:butt;stroke-linejoin:miter;stroke-opacity:1;fill-opacity:1"
       d="M 98.571429,397.10474 85.714286,414.2476 95.714286,416.39045 105,433.53331 C 105,433.53331 101.42857,496.39045 101.42857,500.67617 101.42857,504.96188 108.57143,519.96188 108.57143,519.96188 L 122.85714,517.10474 C 122.85714,517.10474 127.85714,509.2476 128.57143,501.39045 129.28571,493.53331 128.57143,480.67617 128.57143,480.67617 L 138.57143,434.2476 121.42857,408.53331 Z"
       id="path918"
       inkscape:connector-curvature="0" />
    <path
       style="fill:#000000;stroke:none;stroke-width:1px;stroke-linecap:butt;stroke-linejoin:miter;stroke-opacity:1;fill-opacity:1"
       d="M 157.85714,367.10474 147.85714,380.67617 C 147.85714,380.67617 159.28571,398.53331 162.14286,401.39045 165,404.2476 176.42857,394.96188 176.42857,394.96188 L 185,401.39045 189.28571,440.67617 C 189.28571,440.67617 182.85714,441.39045 178.57143,447.10474 174.28571,452.81902 171.42857,458.53331 171.42857,458.53331 171.42857,458.53331 199.28571,480.67617 202.14286,480.67617 205,480.67617 258.57143,411.39045 258.57143,411.39045 258.57143,411.39045 196.42857,454.96188 197.85714,444.96188 199.28571,434.96188 206.42857,395.67617 206.42857,395.67617 L 197.14286,378.53331 Z"
       id="path920"
       inkscape:connector-curvature="0" />
    <path
       style="fill:#000000;stroke:none;stroke-width:1px;stroke-linecap:butt;stroke-linejoin:miter;stroke-opacity:1;fill-opacity:1"
       d="M 187.14286,344.96188 195.71429,350.67617 195,355.67617 213.57143,365.67617 269.28571,339.96188 273.57143,336.39045 266.42857,329.2476 255.71429,325.67617 Z"
       id="path922"
       inkscape:connector-curvature="0" />
    <path
       style="fill:#000000;stroke:none;stroke-width:1px;stroke-linecap:butt;stroke-linejoin:miter;stroke-opacity:1;fill-opacity:1"
       d="M 282.85714,356.39045 302.85714,379.2476 409.28571,322.10474 428.57143,334.2476 C 428.57143,334.2476 415.71429,397.10474 411.42857,395.67617 407.14286,394.2476 362.14286,392.10474 362.14286,392.10474 L 399.28571,417.81902 397.14286,427.10474 402.85714,429.96188 C 402.85714,429.96188 410,430.67617 412.85714,428.53331 415.71429,426.39045 422.14286,417.81902 422.14286,417.81902 L 452.14286,328.53331 407.85714,307.81902 397.14286,319.96188 Z"
       id="path924"
       inkscape:connector-curvature="0" />
    <path
       style="fill:#000000;stroke:none;stroke-width:1px;stroke-linecap:butt;stroke-linejoin:miter;stroke-opacity:1;fill-opacity:1"
       d="M 330.71429,370.67617 C 330.71429,370.67617 362.14286,392.10474 362.14286,392.10474 L 350,427.10474 345.71429,584.96188 352.85714,611.39045 343.57143,622.10474 320.71429,614.96188 316.42857,604.2476 327.14286,589.96188 332.14286,567.10474 C 332.14286,567.10474 330.71429,406.39045 330,402.81902 329.28571,399.2476 322.14286,383.53331 322.14286,383.53331 L 310.56136,376.84673 Z"
       id="path926"
       inkscape:connector-curvature="0" />
  </g>
</svg>
