<?xml version="1.0" encoding="UTF-8" standalone="no"?>
<!-- Created with Inkscape (http://www.inkscape.org/) -->

<svg
   xmlns:dc="http://purl.org/dc/elements/1.1/"
   xmlns:cc="http://creativecommons.org/ns#"
   xmlns:rdf="http://www.w3.org/1999/02/22-rdf-syntax-ns#"
   xmlns:svg="http://www.w3.org/2000/svg"
   xmlns="http://www.w3.org/2000/svg"
   xmlns:sodipodi="http://sodipodi.sourceforge.net/DTD/sodipodi-0.dtd"
   xmlns:inkscape="http://www.inkscape.org/namespaces/inkscape"
   width="512"
   height="512"
   viewBox="0 0 512 512"
   version="1.1"
   id="svg8"
   inkscape:version="0.92.4 (5da689c313, 2019-01-14)"
   sodipodi:docname="U+6B65.svg">
  <defs
     id="defs2" />
  <sodipodi:namedview
     id="base"
     pagecolor="#ffffff"
     bordercolor="#666666"
     borderopacity="1.0"
     inkscape:pageopacity="0.0"
     inkscape:pageshadow="2"
     inkscape:zoom="1.4"
     inkscape:cx="170.45334"
     inkscape:cy="243.13781"
     inkscape:document-units="px"
     inkscape:current-layer="layer1"
     showgrid="false"
     units="px"
     inkscape:window-width="1920"
     inkscape:window-height="1017"
     inkscape:window-x="-8"
     inkscape:window-y="-8"
     inkscape:window-maximized="1" />
  <metadata
     id="metadata5">
    <rdf:RDF>
      <cc:Work
         rdf:about="">
        <dc:format>image/svg+xml</dc:format>
        <dc:type
           rdf:resource="http://purl.org/dc/dcmitype/StillImage" />
        <dc:title></dc:title>
      </cc:Work>
    </rdf:RDF>
  </metadata>
  <g
     inkscape:label="圖層 1"
     inkscape:groupmode="layer"
     id="layer1"
     transform="translate(0,-161.53331)">
    <path
       style="fill:#000000;stroke:#000000;stroke-width:1px;stroke-linecap:butt;stroke-linejoin:miter;stroke-opacity:1;fill-opacity:1"
       d="M 252.85714,195.67617 244.28571,208.53331 247.85714,214.96188 275,229.24759 285.71429,307.81902 300.71429,303.53331 309.28571,239.96188 C 309.28571,239.96188 310,221.39045 310,218.53331 310,215.67617 305,205.67617 305,205.67617 L 290.71429,202.81902 265,194.24759 Z"
       id="path4558"
       inkscape:connector-curvature="0" />
    <path
       style="fill:#000000;stroke:#000000;stroke-width:1px;stroke-linecap:butt;stroke-linejoin:miter;stroke-opacity:1;fill-opacity:1"
       d="M 312.85714,223.53331 334.86584,210.82658 H 383.57143 L 391.25492,215.26265 364.18802,230.88973 346.84365,248.2341 324.57033,235.37459 312.5428,238.59736 Z"
       id="path4560"
       inkscape:connector-curvature="0" />
    <path
       style="fill:#000000;stroke:#000000;stroke-width:1px;stroke-linecap:butt;stroke-linejoin:miter;stroke-opacity:1;fill-opacity:1"
       d="M 172.14286,271.39045 166.42857,288.53331 205,301.39045 211.42857,323.53331 222.85714,324.2476 225.71429,299.96188 212.14286,274.2476 180,265.67617 Z"
       id="path4562"
       inkscape:connector-curvature="0" />
    <path
       style="fill:#000000;stroke:#000000;stroke-width:1px;stroke-linecap:butt;stroke-linejoin:miter;stroke-opacity:1;fill-opacity:1"
       d="M 115.71429,337.81902 145,359.2476 153.57143,372.10474 250,328.53331 330,310.67617 400.71429,314.96188 415,319.2476 429.28571,309.2476 422.85714,302.10474 410,293.53331 388.57143,285.67617 345.28801,297.27392 300.71429,303.53331 256.42857,314.96188 151.98582,342.94723 Z"
       id="path4564"
       inkscape:connector-curvature="0" />
    <path
       style="fill:#000000;stroke:#000000;stroke-width:1px;stroke-linecap:butt;stroke-linejoin:miter;stroke-opacity:1;fill-opacity:1"
       d="M 250,328.53331 278.97893,336.29819 292.87374,360.36469 V 433.53331 L 276.66257,442.89283 261.53775,438.84014 253.22151,443.64152 294.41379,484.8338 302.52434,470.78592 295.48142,444.50138 V 396.39045 L 308.57143,367.10474 322.85714,357.81902 320.71429,339.2476 294.70696,324.23226 Z"
       id="path4566"
       inkscape:connector-curvature="0" />
    <path
       style="fill:#000000;stroke:#000000;stroke-width:1px;stroke-linecap:butt;stroke-linejoin:miter;stroke-opacity:1;fill-opacity:1"
       d="M 197.85714,392.10474 188.57143,430.67617 205,454.2476 210.71429,461.39045 218.57143,432.10474 228.57143,424.2476 217.14286,414.2476 Z"
       id="path4568"
       inkscape:connector-curvature="0" />
    <path
       style="fill:#000000;stroke:#000000;stroke-width:1px;stroke-linecap:butt;stroke-linejoin:miter;stroke-opacity:1;fill-opacity:1"
       d="M 380,347.10474 367.85714,376.39045 C 367.85714,376.39045 326.42857,447.81902 324.28571,452.10474 322.14286,456.39045 272.85714,506.39045 272.85714,506.39045 272.85714,506.39045 218.57143,567.10474 215,570.67617 211.42857,574.2476 120.71429,650.67617 120,653.53331 119.28571,656.39045 102.85714,668.53331 102.85714,668.53331 L 125.71429,673.53331 139.28571,667.10474 228.57143,590.67617 334.28571,458.53331 351.42857,445.67617 385.71429,343.53331 Z"
       id="path4572"
       inkscape:connector-curvature="0" />
    <path
       style="fill:#000000;stroke:#000000;stroke-width:1px;stroke-linecap:butt;stroke-linejoin:miter;stroke-opacity:1;fill-opacity:1"
       d="M 347.14286,367.10474 420.71429,387.10474 427.14286,399.96188 405.71429,412.81902 341.42857,374.2476 Z"
       id="path4574"
       inkscape:connector-curvature="0" />
  </g>
</svg>
