<?xml version="1.0" standalone="no"?>
<!DOCTYPE svg PUBLIC "-//W3C//DTD SVG 1.1//EN" "http://www.w3.org/Graphics/SVG/1.1/DTD/svg11.dtd" >
<svg xmlns="http://www.w3.org/2000/svg" xmlns:xlink="http://www.w3.org/1999/xlink" version="1.1" viewBox="0 0 256 256">
  <g transform="matrix(1 0 0 -1 0 204)">
   <path fill="currentColor"
d="M140 90h-1l10 -5q1 0 3 1q14 5 15 7q6 12 11 30q2 11 -3 22v2q-2 2 1 1q7 -3 11 -7q2 -1 1 -4l-2 -4l-2 -5q-5 -13 -10 -29q9 2 12 3q2 1 3 -1q2 0 -2 -3l-8 -8q-2 -4 -6 -7q-2 -1 -3 -1q0 1 2 4t1 4q0 1 -2 0q-12 -7 -24 -10q-2 -4 -3 -18q0 -4 -1 -10v-7q22 7 33 12
l2 2q3 2 3 4t2 2h4q3 1 5 2q5 1 5 0q0 -2 -2 -4q-8 -4 -7 -8q-4 -16 -2 -54q1 -9 5 -19q1 -2 -1 -4q-2 -1 -3 1q-5 6 -10 9q-2 2 -1 3q1 4 3 3q3 -1 3 4q0 3 -1 18v31q0 6 -1 7q0 1 -3 -1q-10 -5 -32 -12h-2q0 -35 1 -43q1 -3 1 -4q1 -9 1 -24q0 -1 -1 -2q-2 -1 -3 0
q-6 6 -8 10q-4 5 1 7q5 5 5 15v41h-1v2h1q-1 16 -2 27q-1 12 -1 18q-1 2 0 2q0 1 3 0zM130 197q12 2 27 -13q2 -7 -3 -10q-5 -1 -7 -12q-4 -19 -2 -34v-15v-11q-2 -7 -5 -7t-10 9q-4 3 1 2q9 -1 9 5q1 4 1 16l-1 3q-1 13 -1 57q0 6 -6 6q-13 -2 -23 -6q-8 -3 -13 -2
q-5 0 -1 2q18 9 34 10zM133 118q3 0 4 -3q0 -4 -1 -3q-2 -1 -9 -3q-6 -1 -9 -1t-8 -2h-6q-1 -5 1 -6q-1 -3 -2 -4q-2 0 -3 2q-5 3 -7 9q-5 4 -1 8q3 5 4 15q-2 15 -2 29q1 6 1 10q0 9 -3 13q-3 3 2 2q7 -5 8 -13q-2 -4 -1 -14q5 3 10 8q2 5 16 6q2 -1 2 -3q0 -3 -2 -3
q-6 -2 -15 -11q-3 -3 -4 -3t0 3q0 2 -1 3h-2q-2 -2 -4 -2q-2 -13 0 -22q10 2 13 7q0 1 3 2q1 0 2 1q4 0 10 3q5 -2 2 -5q-8 -4 -12 -11q-4 -4 -6 -4q-1 0 2 5q1 3 -13 -2q0 -7 2 -20q17 6 29 9zM77 44q6 -9 3 -14q-17 -32 -40 -44q-6 -1 0 2q34 27 35 55l-1 1q-7 -3 -17 -6
q-11 -6 -24 -3q-5 0 0 2q10 0 30 8q6 1 22 6q10 4 16 6q0 12 -1 18q-1 5 -7 4q-24 -6 -35 -13q-6 -3 -10 3q1 1 2 1h1q2 2 4 2q4 8 3 35q0 6 -3 10q-2 2 1 1q5 -2 10 -6q1 -1 1 -5q-2 -14 -5 -30q-1 -2 0 -2l3 1q2 0 6 1q17 4 24 5q2 2 4 2q5 -1 13 -5q5 -3 0 -7
q-4 -1 -3 -7q-1 -6 -2 -30q0 -21 1 -23v-34l-1 -1q-3 0 -3 4q-5 16 -3 23v6v43q-6 -2 -19 -6l-6 -2z" />
  </g>

</svg>
